<svg width="1054" height="758" viewBox="0 0 1054 758" fill="none" xmlns="http://www.w3.org/2000/svg">
<g id="Frame 76">
<g id="Frame 57">
<g id="Frame 68">
<g id="Group 10">
<path id="Vector" d="M716.459 149.33C713.896 148.915 709.176 148.959 706.056 149.457C698.96 150.661 685.721 155.949 678.17 160.634C675.008 162.569 672.277 164.139 672.049 164C671.897 163.907 671.787 162.378 671.968 160.714C672.245 156.498 670.624 148.724 668.951 145.824C668.106 144.474 665.876 142.487 663.9 141.282C660.631 139.288 659.837 139.221 655.215 140.473C649.001 142.111 643.915 146.003 639.142 152.801C632.796 161.667 633.822 161.353 626.22 156.716C616.718 150.92 609.198 149.569 603.339 152.677C597.742 155.526 596.22 160.757 598.756 168.568C599.593 170.958 601.49 174.516 603.125 176.453C606.272 180.356 621.468 192.549 629.585 197.709C646.351 208.353 708.181 244.293 711.458 245.248C716.44 246.826 726.843 244.819 732.583 241.222C737.433 238.229 742.421 231.249 742.744 226.958C743.403 216.815 736.615 209.647 720.197 203.391C716.131 201.85 712.706 200.283 712.571 199.992C712.558 199.671 714.807 197.18 717.639 194.419C728.013 184.252 733.252 172.414 731.369 163.018C729.795 155.168 725.2 150.903 716.459 149.33ZM724.841 161.751C728.619 169.066 723.38 180.904 711.364 192.053C705.578 197.606 705.038 198.32 705.051 200.521C705.239 203.976 705.771 204.3 719.402 209.483C727.459 212.518 729.376 213.479 732.484 216.419C736.746 220.376 737.909 224.113 736.378 228.503C734.645 233.396 730.724 236.747 724.324 238.689C713.99 241.781 717.034 243.116 675.255 217.736C654.912 205.432 632.956 192.353 626.356 188.64C612.926 181.075 608.724 177.363 605.082 170.339C603.877 168.038 603.019 164.487 603.187 162.502C603.321 159.034 603.46 158.805 605.959 157.615C610.497 155.477 615.589 156.704 624.711 162.268C630.564 165.838 633.258 167.064 634.284 166.75C635.111 166.42 638.239 163.003 641.218 158.974C650.075 147.36 656.782 143.204 661.875 146.31C665.22 148.351 666.968 157.455 665.548 165.254C664.668 170.459 664.736 171.545 666.332 172.518C667.928 173.492 669.537 172.907 677.333 168.162C688.92 161.136 692.537 159.48 702.243 156.735C714.029 153.485 721.41 155.064 724.841 161.751Z" fill="url(#paint0_linear_203_930)"/>
<path id="Vector_2" d="M653.792 221.974C649.536 223.137 642.31 227.29 641.15 229.192C639.896 231.246 642.084 232.789 645.221 232.093C652.014 230.703 660.404 224.129 658.482 221.808C658.089 221.255 655.966 221.317 653.792 221.974Z" fill="url(#paint1_linear_203_930)"/>
<path id="Vector_3" d="M682.202 241.913C681.054 242.257 678.246 243.781 675.76 245.292C667.61 250.447 667.392 254.908 675.514 251.51C683.589 248.188 689.505 239.687 682.202 241.913Z" fill="url(#paint2_linear_203_930)"/>
<path id="Vector_4" d="M613.32 203.342C610.352 203.933 604.337 207.468 603.316 209.142C602.341 210.739 603.309 212.06 605.492 212.243C609.828 212.487 619.569 205.067 616.985 203.49C616.377 203.119 614.743 203.062 613.32 203.342Z" fill="url(#paint3_linear_203_930)"/>
<path id="Vector_5" d="M643.341 250.051C640.555 250.857 636.662 252.45 634.683 253.643C631.766 255.518 631.319 256.08 631.767 257.398C632.498 259.619 635.306 259.974 639.777 258.63C644.049 257.268 648.936 253.359 649.413 251.04C649.842 248.797 648.896 248.637 643.341 250.051Z" fill="url(#paint4_linear_203_930)"/>
<path id="Vector_6" d="M608.066 229.055C606.647 228.816 600.632 232.351 599.564 234.101C599.193 234.71 599.324 235.52 599.856 235.845C601.681 236.958 604.467 236.152 607.603 233.576C611.169 230.636 611.3 229.567 608.066 229.055Z" fill="url(#paint5_linear_203_930)"/>
</g>
<g id="Group 9">
<path id="Vector_7" d="M336.602 176.878C306.91 182.276 300.803 203.931 323.153 224.677C338.227 238.594 363.825 251.145 383.057 254.007C390.334 255.047 401.119 254.462 406.577 252.706C414.633 250.17 419.636 243.536 418.467 237.033C416.648 227.213 404.043 217.523 387.345 213.231C376.885 210.565 360.057 210.305 359.212 212.841C358.888 213.816 360.187 214.012 371.102 214.857C382.083 215.702 390.269 217.783 398.39 221.75C408.461 226.693 414.309 233.196 414.309 239.439C414.309 246.073 405.472 250.69 392.608 250.69C371.362 250.69 342.125 237.618 324.972 220.45C316.851 212.321 313.992 207.248 313.992 200.615C313.927 197.103 314.252 195.867 315.746 193.266C324.323 178.634 355.899 176.228 392.868 187.413C413.074 193.461 427.758 199.639 439.907 207.053C448.484 212.321 455.241 215.052 450.888 211.475C447.379 208.549 431.461 198.794 425.029 195.607C408.591 187.413 383.512 179.544 365.515 176.878C357.263 175.707 343.035 175.707 336.602 176.878Z" fill="url(#paint6_linear_203_930)"/>
<path id="Vector_8" d="M356.808 198.729C351.546 199.51 346.478 202.111 344.854 204.777C342.84 208.029 343.034 212.646 345.373 216.288C349.532 222.921 361.551 229.945 374.156 233.131C380.263 234.692 390.529 235.603 391.179 234.562C391.828 233.522 390.919 233.196 385.331 232.416C370.063 230.335 350.116 219.54 347.972 212.256C346.868 208.679 347.972 206.663 352.195 204.582C354.924 203.216 356.549 202.956 363.89 202.696C373.051 202.371 378.574 203.151 390.269 206.208C404.823 210.045 422.04 217.589 433.41 225.132C441.142 230.205 450.238 239.114 452.902 244.122C456.41 250.69 455.111 257.063 449.263 262.071C437.503 272.151 413.399 274.817 384.356 269.159C369.673 266.298 364.93 264.607 338.421 252.641C335.043 251.145 332.184 250.105 331.989 250.3C331.015 251.21 332.899 252.901 339.006 256.478C351.676 264.022 368.503 270.135 384.681 273.061C409.566 277.679 429.902 276.508 443.871 269.615C450.108 266.493 454.006 263.307 456.41 259.274C457.905 256.673 458.164 255.503 458.164 251.341C458.164 247.243 457.84 245.813 456.215 242.561C453.551 237.228 443.741 227.474 435.814 222.206C411.775 206.338 375.975 195.673 356.808 198.729Z" fill="url(#paint7_linear_203_930)"/>
<path id="Vector_9" d="M300.283 229.944C299.373 231.31 300.738 236.513 303.207 241.455C307.105 249.194 315.551 258.624 315.551 255.177C315.551 254.722 313.472 251.21 310.938 247.308C308.405 243.471 305.221 237.813 303.792 234.757C302.362 231.7 301.063 229.229 300.933 229.229C300.803 229.229 300.478 229.554 300.283 229.944Z" fill="url(#paint8_linear_203_930)"/>
<path id="Vector_10" d="M473.108 244.187C472.913 244.512 473.238 246.463 473.823 248.414C474.797 251.796 474.797 252.316 473.758 255.438C473.173 257.323 471.809 260.315 470.769 262.136C468.69 265.843 468.365 267.599 469.859 267.599C471.029 267.599 474.342 263.176 476.422 258.819C478.631 254.202 478.501 250.43 476.032 246.593C474.018 243.342 473.758 243.146 473.108 244.187Z" fill="url(#paint9_linear_203_930)"/>
</g>
<g id="Group 7">
<path id="Vector_11" d="M736.132 311.115C735.05 311.804 730.808 315.075 726.761 318.339L719.361 324.258L714.282 322.157C707.423 319.337 697.245 316.438 694.388 316.537C692.895 316.589 691.677 317.087 690.927 317.959C689.179 320.037 690.687 322.262 700.311 331.688C705.091 336.402 708.876 340.565 708.762 341.025C708.646 341.419 705.998 343.789 702.9 346.304C699.802 348.82 696.274 352.066 695.023 353.476C692.772 356.027 692.772 356.027 692.64 363.45C692.413 375.626 688.003 390.876 681.61 401.445C673.068 415.668 657.816 431.36 640.817 443.534C633.143 449.072 631.201 451.157 631.98 453.017C632.971 455.325 639.918 453.196 658.097 445.015C671.218 439.093 691.016 427.016 704.12 416.865C717.414 406.576 730.112 392.209 734.828 382.024C735.613 380.305 736.976 378.37 737.802 377.821C739.26 376.729 740.087 374.358 742.842 361.963L744.022 356.651L747.766 355.87C754.731 354.261 761.861 351.801 763.182 350.519C763.936 349.777 764.478 348.521 764.448 347.676C764.38 345.727 762.656 344.746 751.383 340.257C746.768 338.401 742.674 336.591 742.34 336.342C741.937 335.966 741.871 332.194 742.203 326.782C742.705 316.938 742.012 311.952 740.014 310.59C738.482 309.537 738.482 309.537 736.132 311.115ZM738.477 320.599C738.574 323.394 738.484 328.277 738.268 331.408L737.947 337.146L739.894 338.9C741.032 339.837 745.396 341.962 749.548 343.575C757.325 346.623 759.773 347.839 759.209 348.444C759.019 348.581 755.291 349.817 750.847 351.013C742.545 353.449 740.381 354.761 739.847 358.098C738.926 363.401 737.086 372.185 736.603 373.243C736.057 374.368 735.925 374.307 734.697 372.658C733.947 371.643 731.603 367.82 729.459 364.121C727.315 360.421 724.714 356.672 723.704 355.666C721.489 353.661 718.95 353.554 709.457 355.381C702.675 356.658 697.812 357.023 697.785 356.243C697.776 355.983 701.178 352.871 705.348 349.407C711.793 344.043 712.921 342.832 712.869 341.337C712.79 339.062 710.615 336.34 702.73 328.35C697.205 322.751 695.845 321.041 696.884 321.005C697.079 320.999 702.142 322.644 708.06 324.586L718.85 328.245L723.172 325.427C725.525 323.913 729.646 320.907 732.176 318.866C734.768 316.759 737.246 315.111 737.575 315.23C738.034 315.344 738.371 317.545 738.477 320.599ZM716.952 365.272C709.389 390.783 692.686 413.358 669.452 429.459C663.677 433.499 653.854 438.916 653.824 438.071C653.82 437.941 657.094 434.899 661.063 431.247C670.265 422.923 679.146 412.853 683.953 405.268C691.41 393.491 695.93 379.538 696.038 367.691L696.186 360.723L701.118 360.487C703.845 360.392 708.702 359.832 711.868 359.267C715.098 358.699 717.951 358.469 718.22 358.72C718.551 358.904 717.941 361.919 716.952 365.272ZM725.344 365.435C726.176 366.903 728.237 370.085 729.881 372.5C731.59 374.914 732.966 377.078 732.973 377.273C733 378.053 727.754 386.109 723.282 392.121C711.792 407.553 692.119 423.204 667.737 436.221C655.353 442.768 650.866 444.616 659.402 439.569C674.247 430.853 683.619 423.695 693.604 413.587C707.043 399.974 716.947 381.93 720.506 364.627C721.447 359.91 721.444 359.845 722.665 361.299C723.277 362.058 724.511 363.902 725.344 365.435Z" fill="url(#paint10_linear_203_930)"/>
<path id="Vector_12" d="M676.127 339.167C676.006 339.431 675.755 345.296 675.603 352.134C675.232 367.634 673.904 378.027 670.616 390.05C667.906 399.97 667.654 402.061 669.017 402.013C670.9 401.948 673.646 396.777 676.399 388.091C678.629 381.181 679.536 375.488 679.847 365.717C680.35 352.164 678.09 335.78 676.127 339.167Z" fill="url(#paint11_linear_203_930)"/>
<path id="Vector_13" d="M757.106 364.59C756.615 365.453 755.231 368.625 753.971 371.662C749.356 382.885 741.516 394.871 730.516 407.552C724.513 414.398 723.477 416.386 725.814 416.305C727.438 416.249 735.453 409.332 740.015 404.033C744.14 399.269 751.106 388.355 753.946 382.14C757.693 374.005 760.367 363.045 758.549 363.109C758.225 363.12 757.598 363.792 757.106 364.59Z" fill="url(#paint12_linear_203_930)"/>
<path id="Vector_14" d="M653.79 416.533C651.039 419.688 650.583 421.525 652.466 421.46C653.7 421.417 658.25 415.793 658.2 414.363C658.141 412.673 656.35 413.516 653.79 416.533Z" fill="url(#paint13_linear_203_930)"/>
<path id="Vector_15" d="M701.674 426.906C698.482 428.578 696.451 430.016 696.474 430.665C696.521 432.03 697.816 431.855 702.748 429.731C707.422 427.682 709.699 425.846 709.011 424.763C708.258 423.683 707.226 423.914 701.674 426.906Z" fill="url(#paint14_linear_203_930)"/>
</g>
<path id="Vector_16" d="M205.865 402.04C203.136 407.041 203.561 412.981 207.178 419.911C214.812 434.444 237.804 445.637 259.858 445.495C266.06 445.445 265.841 445.362 265.531 447.827C265.131 450.835 267.259 452.35 271.209 451.836C273.791 451.423 274.321 451.603 276.563 453.836C279.928 457.185 282.292 462.372 283.36 468.65C284.13 473.622 284.089 475.012 282.923 490.099C282.178 499.2 282.557 502.29 284.844 506.813C288.416 514.016 294.363 516.951 304.319 516.448C306.441 516.285 313.329 515.183 319.649 513.848C334.637 510.773 336.54 510.527 341.414 510.631C346.483 510.674 351.015 512.864 355.258 517.103C359.744 521.568 362.364 526.332 365.366 535.304C367.401 541.369 368.123 542.932 369.03 543.081C370.534 543.282 370.529 541.605 369.022 535.161C367.087 526.784 365.278 523.039 360.402 516.693C356.679 511.84 355.429 510.656 352.485 509.007C345.069 504.805 340.052 504.724 321.983 508.41C306.368 511.615 301.572 512.176 296.794 511.203C291.978 510.177 289.388 507.794 287.544 502.553C286.318 498.95 286.303 493.917 287.558 480.847C288.614 469.842 286.336 460.429 281.105 454.258C279.453 452.402 277.596 450.373 277.021 449.905C276.112 449.197 276.096 448.728 276.961 447.706C278.693 445.662 278.89 443.039 277.411 440.979C276.159 439.236 276.121 439.183 279.816 433.968C293.18 414.927 298.538 391.866 292.444 379.59C287.11 368.929 276.565 367.053 265.927 374.851C260.159 379.072 256.194 384.801 252.451 394.293C250.725 398.574 249.013 402.205 248.583 402.273C248.137 402.433 244.976 401.26 241.458 399.703C225.724 392.826 210.374 393.839 205.865 402.04ZM218.189 400.157C224.072 399.216 229.409 400.188 238.349 403.616C242.993 405.406 247.538 406.946 248.513 406.967C251.551 407.187 253.464 405.173 255.285 400.023C257.445 394.23 261.141 387.013 263.543 384.008C266.329 380.647 271.946 376.774 275.291 375.973C284.124 373.795 289.62 380.336 289.664 392.874C289.711 403.968 283.686 421.423 275.622 433.697C273.892 436.3 271.889 438.859 271.203 439.351C269.461 440.602 257.094 440.755 249.823 439.65C239.014 437.964 228.659 433.79 220.316 427.851C216.099 424.874 210.714 417.372 209.568 412.991C207.773 406.034 210.925 401.29 218.189 400.157Z" fill="url(#paint15_linear_203_930)"/>
<g id="Group 5">
<path id="Vector_17" d="M385.147 618.241C383.299 617.825 381.618 618.873 382.424 619.99C383.07 620.995 387.404 621.479 388.484 620.726C389.218 620.127 387.336 618.737 385.147 618.241Z" fill="url(#paint16_linear_203_930)"/>
<path id="Vector_18" d="M311.375 572.85C310.88 573.218 309.908 574.84 309.24 576.594C307.358 581.227 307.028 581.473 303.412 581.093C297.836 580.457 297.44 582.162 302.111 586.369L304.942 588.897L303.416 593.7C302.531 596.333 302.008 598.901 302.286 599.412C302.869 600.849 306.349 599.945 310.008 597.422L313.322 595.054L315.342 596.701C316.814 597.885 317.655 598.154 318.528 597.811C319.619 597.382 319.671 596.626 319.144 593.405C318.456 589.279 318.742 588.527 321.97 585.941C324.868 583.601 324.552 582.351 320.915 582.115C319.44 581.959 317.895 581.675 317.575 581.452C317.202 581.192 316.251 579.261 315.465 577.207C313.84 573.062 312.8 571.941 311.375 572.85ZM313.351 580.014L313.907 581.828L312.289 581.651C310.851 581.442 310.728 581.277 311.103 579.716C311.341 578.692 311.612 577.85 311.723 577.69C312.095 577.157 312.847 578.236 313.351 580.014ZM314.153 588.975C312.889 590.789 312.798 590.806 310.773 589.394C309.387 588.428 308.773 587.604 308.969 586.868C309.424 584.966 310.046 584.528 312.171 584.661C315.052 584.845 315.826 586.575 314.153 588.975ZM305.761 585.108C305.575 585.375 305.176 585.493 304.856 585.27C304.59 585.084 304.509 584.632 304.695 584.365C304.918 584.045 305.333 584.017 305.6 584.203C305.92 584.426 305.984 584.788 305.761 585.108ZM308.774 594.421C305.95 596.655 305.417 596.283 306.818 593.137C307.576 591.367 307.794 591.281 309.02 592.136C310.299 593.027 310.278 593.171 308.774 594.421Z" fill="url(#paint17_linear_203_930)"/>
<path id="Vector_19" d="M356.455 605.775C355.145 605.496 354.006 605.654 353.906 606.139C353.44 607.716 359.54 609.986 361.151 608.81C362.05 608.089 359.363 606.375 356.455 605.775Z" fill="url(#paint18_linear_203_930)"/>
<path id="Vector_20" d="M342.938 599.604C340.61 598.854 339.726 598.872 339.349 599.64C338.856 600.802 339.479 601.157 344.615 602.993C346.639 603.611 348.167 603.804 348.502 603.324C349.171 602.364 347.002 600.931 342.938 599.604Z" fill="url(#paint19_linear_203_930)"/>
<path id="Vector_21" d="M326.299 592.684C323.502 591.924 321.783 592.232 322.025 593.59C322.202 594.585 331.481 597.406 332.38 596.685C333.279 595.964 329.633 593.581 326.299 592.684Z" fill="url(#paint20_linear_203_930)"/>
<path id="Vector_22" d="M318.92 599.749C317.973 600.199 319.763 604.221 321.757 606.245C325.533 610.145 324.918 605.119 321.057 601C320.246 600.118 319.356 599.577 318.92 599.749Z" fill="url(#paint21_linear_203_930)"/>
<path id="Vector_23" d="M206.655 522.773C206.358 523.2 205.759 525.082 205.304 526.984C204.849 528.887 204.325 530.662 204.139 530.928C203.953 531.195 202.292 531.306 200.402 531.177C195.524 530.79 195.153 532.117 199.301 535.483L202.527 538.128L201.31 542.828C200.442 546.346 200.375 547.805 201.154 548.506C202.284 549.611 203.656 548.665 206.259 544.931L208.007 542.423L211.956 544.938C217.116 548.216 218.068 547.532 215.674 542.218C214.728 540.052 213.995 538.035 214.021 537.657C214.047 537.279 215.382 536.386 217.021 535.626C221.501 533.516 220.625 532.272 214.539 531.915L210.758 531.658L209.736 528.012C209.184 525.963 208.899 524.099 209.047 523.886C209.196 523.672 208.865 523.125 208.279 522.716C207.693 522.307 206.953 522.346 206.655 522.773ZM208.622 537.223C207.235 538.872 206.713 538.826 206.406 537.106C206.137 535.333 207.77 534.014 208.863 535.172C209.391 535.778 209.323 536.444 208.622 537.223ZM211.769 541.002C211.743 541.381 211.45 541.573 211.184 541.387C210.864 541.164 210.784 540.712 210.969 540.445C211.193 540.125 211.448 539.986 211.555 540.06C211.714 540.172 211.832 540.571 211.769 541.002Z" fill="url(#paint22_linear_203_930)"/>
<path id="Vector_24" d="M287.718 578.953C285.199 578.704 285.68 579.832 289.145 582.246C291.064 583.584 292.758 584.448 292.907 584.234C293.985 582.687 290.508 579.154 287.718 578.953Z" fill="url(#paint23_linear_203_930)"/>
<path id="Vector_25" d="M275.428 571.815C274.107 571.211 273.063 571.118 272.548 571.63C271.83 572.319 272.092 572.739 274.277 574.263C275.663 575.228 277.48 576.257 278.285 576.58C280.021 577.156 281.148 575.881 279.709 574.878C279.122 574.469 278.451 573.842 278.099 573.438C277.8 573.071 276.59 572.307 275.428 571.815Z" fill="url(#paint24_linear_203_930)"/>
<path id="Vector_26" d="M349.822 626.201L346.613 627.056L343.893 624.368C340.416 620.835 337.282 618.968 336.325 619.886C335.937 620.329 335.851 622.726 336.228 625.367L336.794 630.122L333.91 630.965C332.313 631.438 330.802 632.128 330.579 632.449C330.059 633.195 332.137 634.644 335.696 636.015L338.594 637.084L339.449 641.88C340.662 648.434 341.754 648.798 345.229 643.927L347.885 640.23L350.378 640.857C353.803 641.738 354.615 640.005 352.341 636.677C350.297 633.587 350.263 632.613 352.457 629.465C354.837 626.05 353.957 625.041 349.822 626.201ZM342.727 627.518C343.122 628.428 343.011 628.588 341.563 628.848C340.078 629.16 340.008 629.032 339.589 626.679L339.101 624.199L340.7 625.313C341.606 625.945 342.486 626.954 342.727 627.518ZM346.76 632.866C346.873 633.5 346.582 634.486 346.099 635.18C345.02 636.727 342.128 636.217 341.087 634.303C340.275 632.627 340.849 631.917 343.366 631.373C345.613 630.877 346.47 631.237 346.76 632.866ZM343.632 640.991C342.851 642.111 342.798 642.074 342.455 640.408C342.176 639.104 342.329 638.656 342.995 638.724C344.31 638.768 344.562 639.657 343.632 640.991Z" fill="url(#paint25_linear_203_930)"/>
<path id="Vector_27" d="M257.009 560.405C256.365 560.193 255.657 560.413 255.429 560.968C255.068 561.826 255.527 562.304 257.733 563.684C260.867 565.551 262.523 565.674 261.855 564.02C261.427 562.929 259.012 561.167 257.009 560.405Z" fill="url(#paint26_linear_203_930)"/>
<path id="Vector_28" d="M240.274 550.327C239.95 550.338 239.455 550.707 239.158 551.134C238.823 551.614 239.58 552.459 242.086 554.205C245.497 556.582 247.51 556.876 246.703 554.966C246.222 553.838 241.126 550.127 240.274 550.327Z" fill="url(#paint27_linear_203_930)"/>
<path id="Vector_29" d="M296.444 591.773C294.012 592.535 292.996 593.651 294.062 594.394C294.969 595.025 298.758 594.02 299.502 592.953C300.357 591.726 298.657 591.096 296.444 591.773Z" fill="url(#paint28_linear_203_930)"/>
<path id="Vector_30" d="M327.418 613.123C326.637 614.243 330.017 620.642 331.194 620.432C332.551 620.188 332.345 617.984 330.776 615.463C329.222 613.033 328.05 612.216 327.418 613.123Z" fill="url(#paint29_linear_203_930)"/>
<path id="Vector_31" d="M226.452 543.229C225.13 542.625 224.14 542.569 223.805 543.05C222.615 544.757 229.335 548.41 230.845 546.925C231.728 546.114 230.576 545.153 226.452 543.229Z" fill="url(#paint30_linear_203_930)"/>
<path id="Vector_32" d="M287.051 595.136C284.156 595.654 280.746 597.479 280.907 598.384C281.229 600.194 288.494 598.52 290.093 596.226C291.06 594.838 290.218 594.569 287.051 595.136Z" fill="url(#paint31_linear_203_930)"/>
<path id="Vector_33" d="M216.102 553.534C215.544 554.334 216.498 557.853 217.462 558.287C219.034 558.986 219.692 557.701 218.597 555.749C217.454 553.525 216.623 552.787 216.102 553.534Z" fill="url(#paint32_linear_203_930)"/>
<path id="Vector_34" d="M324.051 629.088C320.713 629.219 322.032 631.644 325.44 631.641C326.377 631.66 327.319 631.445 327.542 631.125C328.025 630.431 325.675 629.031 324.051 629.088Z" fill="url(#paint33_linear_203_930)"/>
<path id="Vector_35" d="M314.316 627.376C311.674 626.961 309.557 628.181 311.05 629.221C312.489 630.224 317.564 630.67 318.159 629.816C318.902 628.749 317.426 627.799 314.316 627.376Z" fill="url(#paint34_linear_203_930)"/>
<path id="Vector_36" d="M220.447 563.776C219.575 564.119 220.281 569.923 221.347 570.666C222.573 571.52 223.432 569.265 222.684 567.158C221.528 563.816 221.267 563.396 220.447 563.776Z" fill="url(#paint35_linear_203_930)"/>
<path id="Vector_37" d="M266.791 600.911C263.257 601.778 262.087 602.548 262.621 603.713C262.878 604.367 271.314 602.716 271.909 601.863C272.764 600.636 269.963 600.11 266.791 600.911Z" fill="url(#paint36_linear_203_930)"/>
<path id="Vector_38" d="M222.611 578.284C221.867 579.351 222.896 583.556 224.085 584.464C225.524 585.467 226.081 583.873 225.347 581.063C224.613 578.252 223.466 577.057 222.611 578.284Z" fill="url(#paint37_linear_203_930)"/>
<path id="Vector_39" d="M280.462 619.476C276.526 618.873 274.723 619.756 276.855 621.242C278.401 622.32 285.643 623.404 286.579 622.63C287.643 621.786 284.451 620.116 280.462 619.476Z" fill="url(#paint38_linear_203_930)"/>
<path id="Vector_40" d="M253.624 604.576C250.228 604.904 246.419 606.847 246.661 608.205C246.903 609.562 247.643 609.523 252.368 607.743C255.22 606.719 256.427 605.896 256.314 605.262C256.202 604.629 255.376 604.45 253.624 604.576Z" fill="url(#paint39_linear_203_930)"/>
<path id="Vector_41" d="M265.867 615.645C260.733 614.604 258.891 614.747 259.851 616.209C261.058 618.001 271.208 619.685 271.259 618.135C271.337 617.001 270.479 616.641 265.867 615.645Z" fill="url(#paint40_linear_203_930)"/>
<path id="Vector_42" d="M235.215 599.514L232.746 600.33L230.421 597.758C229.189 596.344 227.562 594.814 226.816 594.294C224.844 592.92 223.713 595.223 224.427 598.971L225.029 602.085L221.282 602.803C218.929 603.224 217.327 603.931 217.078 604.63C216.606 605.648 217.011 606.089 221.227 608.79L225.816 611.75L225.639 614.163C224.924 623.257 228.245 625.651 231.039 618.006L232.226 614.712L233.835 615.357C238.572 617.311 239.253 617.469 239.774 616.722C240.072 616.295 239.307 614.098 238.073 611.89C235.505 607.167 235.429 606.48 237.288 603.813C240.077 599.811 239.334 598.263 235.215 599.514ZM228.797 601.224C228.611 601.491 228.319 601.683 228.212 601.609C228.052 601.497 227.971 601.045 227.998 600.667C228.061 600.235 228.316 600.096 228.583 600.282C228.902 600.505 229.02 600.904 228.797 601.224ZM231.765 605.829C231.878 606.462 231.363 607.769 230.657 608.782L229.318 610.703L228.802 607.807C228.367 605.363 228.521 604.916 229.591 604.631C231.097 604.174 231.507 604.381 231.765 605.829ZM225.208 607.283C225.054 607.731 224.388 607.663 223.535 607.069C222.256 606.177 222.224 605.996 223.294 605.712C224.672 605.325 225.541 606.01 225.208 607.283Z" fill="url(#paint41_linear_203_930)"/>
<path id="Vector_43" d="M247.894 610.412C245.45 610.056 243.85 611.556 245.778 612.425C247.814 613.368 253.006 614.213 253.415 613.626C253.973 612.825 250.573 610.773 247.894 610.412Z" fill="url(#paint42_linear_203_930)"/>
</g>
<g id="Group 4">
<path id="Vector_44" d="M761.216 674.255C763.513 682.794 767.983 690.082 775.484 697.199C782.229 703.601 786.247 705.98 794.686 708.614C799.508 710.145 802.091 710.446 809.627 710.253C818.265 710.03 818.911 710.106 821.858 712.007C833.231 719.485 853.453 719.149 873.702 711.226C891.995 704.042 916.803 687.725 929.869 674.24C934.344 669.619 935.321 668.306 935.113 667.392C934.654 665.702 933.705 666.325 926.294 672.906C909.051 688.431 889.023 701.222 871.545 707.925C858.166 713.142 844.513 714.965 834.207 712.977C830.091 712.117 823.449 709.575 823.382 708.795C823.374 708.52 825.317 707.228 827.672 705.88C832.698 702.946 834.981 700.635 837.079 696.535C839.264 692.248 838.967 688.026 836.214 684.786C833.369 681.549 831.737 680.717 828.101 680.581C823.959 680.412 820.285 682.299 816.987 686.246C812.622 691.508 811.671 697.234 814.165 702.825C814.85 704.371 815.167 705.926 814.809 706.303C813.915 707.246 803.796 707.138 798.986 706.066C784.974 703.07 771.889 691.728 765.147 676.821C763.777 673.729 762.33 671.192 762.007 671.154C760.805 670.909 760.599 671.788 761.216 674.255ZM823.033 685.355C825.795 683.767 830.765 683.915 832.652 685.706C836.332 689.197 835.729 694.179 830.851 699.224C826.826 703.465 820.914 705.916 819.027 704.126C816.669 701.887 815.799 696.852 817.03 693.004C818.352 689.154 819.776 687.37 823.033 685.355Z" fill="url(#paint43_linear_203_930)"/>
<path id="Vector_45" d="M856.373 701.05C857.6 702.214 865.133 701.928 871.119 700.533C879.022 698.629 885.052 695.393 893.69 688.274C897.65 685.046 898.982 683.264 898.039 682.369C897.284 681.653 895.195 682.626 889.183 686.505C878.468 693.355 869.968 697.022 861.312 698.302C856.319 699.029 855.052 699.797 856.373 701.05Z" fill="url(#paint44_linear_203_930)"/>
<path id="Vector_46" d="M945.473 617.928C945.644 619.165 947.722 622.928 951.852 629.535L954.736 634.242L950.46 644.606C945.536 656.503 945.118 658.077 946.392 659.286C947.901 660.718 950.629 659.544 957.935 654.207C961.769 651.396 965.199 649.008 965.656 648.905C966.615 648.65 970.531 652.366 976.556 659.337C982.201 665.859 982.899 666.163 985.717 663.194C986.7 662.157 991.795 653.198 996.958 643.318C1002.21 633.435 1007.51 623.597 1008.83 621.357C1011.65 616.594 1012.23 614.097 1010.82 613.121C1010.21 612.723 1006.17 612.735 1001.67 613.127C997.175 613.518 987.113 613.823 979.295 613.748C955.427 613.58 953.497 613.63 950.608 613.934C947.72 614.238 945.288 616.14 945.473 617.928ZM962.474 617.491C968.683 617.561 977.788 617.603 982.661 617.57C987.534 617.536 991.814 617.656 992.139 617.786C992.742 618 989.468 619.372 969.447 627.243C960.619 630.689 957.745 631.544 957.313 630.866C952.5 622.805 950.222 618.404 950.669 617.933C950.937 617.65 956.22 617.468 962.474 617.491ZM980.741 626.585C998.32 620.248 1001.24 619.437 998.317 621.857C988.508 629.926 971.399 641.814 965.181 644.871C962.958 645.985 959.472 648.052 957.398 649.577C955.321 651.01 953.286 652.303 952.874 652.36C952.462 652.417 952.992 649.874 954.106 646.811C955.128 643.75 956.358 639.902 956.776 638.328L957.575 635.503L960.754 634.042C962.573 633.259 971.54 629.856 980.741 626.585ZM975.337 642.954C979.362 640.414 999.53 625.964 1000.78 624.644C1001.99 623.464 1000.65 626.579 997.192 633.151C995.177 636.881 991.426 644.518 988.816 650.102C986.251 655.64 983.895 660.39 983.626 660.673C983.134 661.191 981.528 659.577 972.948 649.913C971.337 648.115 970.235 646.442 970.503 646.159C970.727 645.924 972.94 644.441 975.337 642.954Z" fill="url(#paint45_linear_203_930)"/>
</g>
<path id="Vector_47" d="M318.242 704.02C317.402 704.372 313.946 707.23 310.495 710.437C307.045 713.645 303.339 716.748 302.225 717.286L300.176 718.285L295.454 707.02C290.782 695.875 290.707 695.695 288.79 695.16C284.846 693.995 281.874 696.157 271.411 707.869C267.697 711.962 264.417 715.239 264.162 715.135C263.907 715.031 263.737 706.719 263.854 696.736C263.946 686.694 263.909 677.692 263.748 676.632C263.171 673.07 259.261 670.975 255.902 672.383C253.563 673.363 250.234 677.365 238.827 692.714C232.48 701.292 226.378 709.275 225.199 710.332C221.075 714.456 220.61 711.833 222.563 693.614C224.928 670.995 224.931 664.442 222.459 666.112C221.3 666.88 220.571 670.356 218.377 685.647C215.155 707.568 215.68 715.379 220.476 717.737C224.115 719.522 228.204 715.484 242.116 696.69C256.226 677.531 257.484 676.158 258.363 678.255C258.615 678.854 258.677 685.732 258.501 693.555C258.061 715.72 258.494 720.118 261.408 721.855C263.676 723.229 266.399 721.313 273.991 712.847C283.306 702.602 285.793 700.291 286.899 700.743C287.495 700.987 288.625 703.683 290.431 709.337C294.802 722.792 297.273 725.491 303.09 723.052C306.989 721.418 309.51 719.022 315.439 711.465C320.315 705.265 321.18 702.788 318.242 704.02Z" fill="url(#paint46_linear_203_930)"/>
<g id="Group 6">
<path id="Vector_48" d="M785.343 365.543C783.871 371.932 785.838 383.075 789.16 387.291C793.867 393.322 794.305 393.603 797.579 394.16C803.963 395.169 811.42 391.616 815.983 385.589C819.329 381.097 820.136 376.828 818.132 373.69C817.407 372.53 816.484 371.32 816.046 371.039C814.369 370.04 809.099 369.824 805.018 370.525L800.722 371.319L798.907 366.681C797.488 362.992 796.635 361.672 794.938 360.583C792.092 358.757 790.432 358.695 788.387 360.317C786.217 362.012 786.097 362.321 785.343 365.543ZM792.186 364.993C792.788 365.379 793.799 367.417 794.395 369.498C796.506 376.565 797.292 377.147 804.212 375.875C812.3 374.348 814.512 374.996 813.747 378.596C812.784 383.228 807.04 387.725 800.213 389.211L795.508 390.283L793.79 388.023C791.391 385.018 790.172 381.379 789.775 376.338C789.089 368.255 790.106 363.659 792.186 364.993Z" fill="url(#paint47_linear_203_930)"/>
<path id="Vector_49" d="M730.384 453.484C727.562 462.095 731.18 471.75 739.172 476.878L743.058 479.371L737.045 488.019C726.638 503.034 714.275 515.558 701.071 524.455C696.938 527.284 693.539 529.812 693.598 530.081C693.849 531.015 697.383 529.963 701.544 527.692C715.746 520.13 732.269 504.254 743.365 487.443L748.492 479.693L752.034 479.11C764.493 476.914 774.744 465.273 780.1 447.172C782.122 440.287 784.055 430.41 785.603 419.207C786.764 410.534 786.788 407.847 785.802 407.215C784.872 406.618 783.666 410.785 781.397 422.992C775.91 451.895 769.923 464.959 758.966 471.438C756.023 473.255 751.505 474.756 750.684 474.229C750.465 474.089 750.558 473.222 750.9 472.207C751.262 471.281 751.832 467.864 752.227 464.72C753.039 458.757 752.345 453.217 750.297 449.664C748.696 446.861 744.591 444.227 741.704 444.15C737.102 443.977 732.197 448.009 730.384 453.484ZM739.91 449.716C741.808 448.926 744.267 450.272 745.848 452.985C748.099 456.823 747.873 466.327 745.424 472.553C744.836 473.951 744.496 474.119 743.082 473.674C738.709 472.181 734.653 465.255 734.692 459.413C734.656 455.376 737.099 450.845 739.91 449.716Z" fill="url(#paint48_linear_203_930)"/>
</g>
<path id="Vector_50" d="M319.907 294.568C320.329 295.621 321.555 299.839 322.57 303.957C325.432 315.55 329.811 323.235 334.114 324.296C335.828 324.761 336.461 324.6 338.31 323.336C340.461 321.896 343.225 317.538 343.629 314.98C343.789 314.299 344.217 313.643 344.603 313.585C345.641 313.495 355.792 320.64 359.311 323.921C362.135 326.519 364.644 330.083 364.905 331.818C365.147 333.424 361.923 337.786 357.866 341.419C348.994 349.324 345.699 354.09 345.617 359.228C345.585 367.314 356.584 373.543 379.815 378.458C392.112 381.075 394.733 382.323 393.207 384.853C392.844 385.499 389.671 388.013 386.157 390.447C375.258 398 372.179 402.012 373.02 407.601C373.871 413.255 381.33 419.557 390.595 422.565C396.319 424.332 402.339 425.003 403.213 423.82C404.033 422.711 403.061 421.938 400.235 421.509C391.671 420.104 380.775 414.122 378.664 409.709C376.618 405.286 377.264 404.335 388.747 396.299C396.781 390.688 399.047 388.705 399.944 386.796C402.887 380.571 398.783 376.458 386.965 373.965C370.918 370.467 364.956 368.867 360.37 366.798C355.433 364.584 352.361 362.089 352.052 360.033C351.675 357.528 354.352 353.905 361.415 347.521C370.378 339.339 371.894 336.745 371.034 331.027C370.599 328.136 369.933 326.331 368.363 324.202C365.873 320.766 357.555 314.002 352.487 311.348L348.84 309.4L352.662 307.708C357.173 305.78 358.906 303.746 359.814 299.733C362.28 288.586 348.515 281.459 329.995 284.246C322.663 285.349 319.657 286.787 319.079 289.502C318.598 291.545 318.749 292.114 319.907 294.568ZM329.482 289.579C345.311 287.263 357.934 292.919 353.316 300.25C352.034 302.217 351.85 302.311 345.365 303.352C341.709 303.968 338.374 304.535 337.934 304.667C336.86 304.96 337.279 306.869 338.771 308.484C339.855 309.569 340.016 310.202 339.683 312.354C339.387 314.764 336.662 319.379 335.505 319.553C334.797 319.66 331.741 315.52 330.534 312.745C329.936 311.39 328.362 306.173 327.074 301.111C325.731 296.122 324.505 291.905 324.357 291.796C323.321 291.032 325.173 290.227 329.482 289.579Z" fill="url(#paint49_linear_203_930)"/>
<path id="Vector_51" d="M813.751 552.369C812.137 552.343 809.521 553.17 806.724 554.701C804.324 555.975 802.186 557.045 802.051 557.1C801.917 557.156 801.075 554.957 800.201 552.299C798.447 546.893 796.394 544.502 792.784 543.601C790.16 542.955 785.853 544.637 783.718 547.09C778.899 552.724 779.609 565.069 785.34 574.714C789.187 581.08 789.254 580.707 780.611 591.031L773.2 599.841L773.072 593.953C772.843 583.924 767.398 573.753 762.244 573.835C760.22 573.884 758.359 575.627 757.881 578.056C757.287 580.816 757.858 587.779 758.909 590.332C759.973 593.069 764.114 599.691 766.578 602.699L768.233 604.657L764.816 607.89C757.029 615.252 741.377 624.82 726.178 631.593C718.304 634.998 716.979 635.828 717.861 636.595C719.772 638.259 737.489 631.265 749.887 623.951C757.771 619.347 767.381 612.365 769.772 609.618C771.608 607.509 773.131 607.541 777.568 609.766C785.96 613.88 797.742 613.704 804.532 609.269C808.416 606.786 808.681 601.93 804.959 600.07C801.232 598.118 792.469 597.992 782.959 599.714L779.683 600.311L782.836 596.59C784.538 594.536 787.416 590.834 789.227 588.358C792.422 583.896 792.556 583.841 796.43 582.557C802.559 580.563 807.499 577.362 812.49 572.223C817.993 566.495 819.655 563.2 819.426 558.516C819.227 554.291 817.487 552.431 813.751 552.369ZM815.52 559.341C815.595 563.114 810.857 569.25 804.703 573.549C798.939 577.498 793.648 579.618 792.954 578.238C792.684 577.658 791.426 575.442 790.217 573.268C786.823 567.469 785.728 564.274 785.339 559.279C784.918 553.825 786.188 550.189 789.175 548.737C793.359 546.602 795.904 550.111 796.343 558.512C796.825 566.864 798.447 567.672 803.321 562.172C805.2 560.014 809.218 557.476 812.023 556.728C814.009 556.129 815.51 557.176 815.52 559.341ZM801.383 606.355C799.143 607.94 787.575 608.561 783.023 607.358C780.913 606.814 779.212 606.195 779.193 605.92C779.086 604.361 793.83 602.366 799.414 603.175C803.231 603.738 803.801 604.666 801.383 606.355ZM766.982 585.116C767.805 587.04 768.601 590.578 768.759 592.871L769.091 597.041L767.5 596C764.26 593.783 761.364 585.83 762.253 581.345L762.695 579.056L764.067 580.251C764.851 580.933 766.152 583.1 766.982 585.116Z" fill="url(#paint50_linear_203_930)"/>
<path id="Vector_52" d="M843.304 466.28C842.394 466.995 840.64 469.271 839.47 471.287L837.326 474.994L830.309 475.514C822.123 476.164 820.434 476.685 819.459 478.831C818.289 481.367 819.199 483.123 824.007 488C826.541 490.472 828.62 492.943 828.62 493.398C828.62 493.853 827.84 496.845 826.931 499.966C825.956 503.153 825.371 506.275 825.631 506.86C826.216 508.486 828.62 507.835 834.792 504.324C837.651 502.698 840.315 501.332 840.64 501.332C841.03 501.332 843.044 502.243 845.188 503.283C849.736 505.494 851.945 505.689 854.024 503.998C855.323 502.958 855.583 502.047 855.778 497.885L856.038 492.943L860.066 490.407C865.264 486.96 867.473 484.944 867.993 482.798C868.772 479.546 864.744 477.335 858.052 477.27C854.089 477.27 852.14 476.295 851.62 474.213C850.905 471.287 849.021 467.19 847.787 466.019C846.357 464.589 845.383 464.654 843.304 466.28ZM845.513 475.059C845.513 475.579 845.058 475.969 844.538 475.969C843.434 475.969 843.369 475.839 843.953 474.409C844.408 473.238 845.513 473.628 845.513 475.059ZM833.818 482.147C833.818 482.993 832.258 486.375 831.869 486.375C831.089 486.375 827.321 483.123 827.321 482.473C827.321 482.147 827.97 481.822 828.815 481.692C830.179 481.497 833.818 481.822 833.818 482.147ZM845.708 482.408C847.397 483.058 847.722 483.773 848.436 487.675C848.826 489.886 848.761 490.016 845.318 491.902L841.744 493.788L839.145 492.032L836.482 490.277L837.456 487.48C839.21 482.408 841.679 480.912 845.708 482.408ZM858.767 484.033C858.377 485.074 855.388 486.505 854.609 486.049C854.349 485.919 853.959 485.139 853.764 484.424C853.439 483.253 853.764 483.123 856.298 483.123C858.377 483.123 859.027 483.318 858.767 484.033ZM834.467 497.04C834.467 497.235 834.208 497.56 833.818 497.755C833.493 497.95 833.168 497.82 833.168 497.495C833.168 497.105 833.493 496.78 833.818 496.78C834.208 496.78 834.467 496.91 834.467 497.04Z" fill="url(#paint51_linear_203_930)"/>
<path id="Vector_53" d="M142.028 625.616C141.99 626.773 142.602 629.58 143.392 631.773L144.849 635.8L140.73 641.505C135.958 648.188 135.269 649.816 136.284 651.943C137.472 654.471 139.401 654.905 146.229 654.365C149.751 654.017 152.981 654.016 153.329 654.309C153.677 654.602 155.465 657.125 157.268 659.83C159.08 662.627 161.092 665.084 161.707 665.262C163.328 665.861 164.378 663.603 165.663 656.618C166.259 653.384 166.929 650.467 167.138 650.218C167.389 649.92 169.382 648.964 171.558 647.993C176.178 645.936 177.749 644.371 177.794 641.692C177.834 640.027 177.304 639.242 174.245 636.414L170.63 633.034L171.282 628.318C171.99 622.122 171.869 619.134 170.561 617.355C168.575 614.665 164.29 616.324 159.932 621.404C157.381 624.437 155.38 625.301 153.453 624.359C150.753 623.022 146.405 621.827 144.714 622.018C142.699 622.191 142.122 622.978 142.028 625.616ZM150.168 629.577C150.566 629.912 150.572 630.511 150.238 630.909C149.527 631.754 149.385 631.72 148.667 630.351C148.064 629.25 149.073 628.656 150.168 629.577ZM148.065 643.09C148.712 643.634 150.296 647.004 150.045 647.302C149.543 647.899 144.629 648.69 144.132 648.271C143.883 648.062 144.052 647.355 144.496 646.625C145.225 645.455 147.816 642.88 148.065 643.09ZM155.918 634.158C157.503 633.284 158.259 633.496 161.705 635.46C163.648 636.585 163.706 636.719 162.933 640.568L162.076 644.517L159.059 645.375L156.001 646.284L154.488 643.738C151.735 639.13 152.18 636.278 155.918 634.158ZM165.568 625.21C166.113 626.179 165.284 629.387 164.434 629.69C164.167 629.806 163.319 629.602 162.646 629.29C161.541 628.785 161.651 628.453 163.282 626.514C164.62 624.923 165.188 624.551 165.568 625.21ZM159.88 652.179C160.029 652.304 160.111 652.712 160.009 653.136C159.949 653.51 159.641 653.675 159.392 653.466C159.093 653.215 159.054 652.757 159.263 652.508C159.514 652.21 159.781 652.095 159.88 652.179Z" fill="url(#paint52_linear_203_930)"/>
<path id="Vector_54" d="M227.623 301.791C227.585 302.948 228.198 305.756 228.988 307.948L230.445 311.975L226.326 317.68C221.554 324.363 220.865 325.991 221.88 328.118C223.068 330.646 224.997 331.08 231.825 330.54C235.347 330.192 238.576 330.192 238.925 330.485C239.273 330.778 241.061 333.3 242.864 336.005C244.675 338.802 246.688 341.259 247.303 341.437C248.923 342.036 249.973 339.778 251.259 332.794C251.855 329.559 252.524 326.642 252.734 326.393C252.985 326.095 254.978 325.14 257.154 324.169C261.774 322.111 263.345 320.546 263.389 317.867C263.43 316.203 262.9 315.418 259.84 312.589L256.225 309.209L256.877 304.494C257.586 298.297 257.465 295.309 256.157 293.53C254.17 290.84 249.885 292.5 245.528 297.579C242.977 300.612 240.975 301.476 239.048 300.534C236.349 299.197 232 298.002 230.31 298.193C228.295 298.366 227.717 299.154 227.623 301.791ZM235.764 305.752C236.162 306.087 236.168 306.686 235.833 307.084C235.122 307.929 234.981 307.895 234.263 306.527C233.66 305.425 234.669 304.831 235.764 305.752ZM233.661 319.265C234.308 319.809 235.892 323.179 235.641 323.477C235.139 324.074 230.225 324.865 229.727 324.446C229.478 324.237 229.648 323.53 230.092 322.8C230.821 321.631 233.412 319.056 233.661 319.265ZM241.513 310.333C243.098 309.459 243.855 309.671 247.301 311.636C249.244 312.761 249.302 312.894 248.528 316.743L247.671 320.692L244.655 321.551L241.596 322.459L240.084 319.913C237.331 315.305 237.776 312.453 241.513 310.333ZM251.164 301.386C251.709 302.354 250.88 305.562 250.03 305.866C249.763 305.981 248.915 305.777 248.242 305.466C247.137 304.961 247.247 304.628 248.878 302.689C250.216 301.098 250.784 300.726 251.164 301.386ZM245.476 328.354C245.625 328.479 245.707 328.888 245.605 329.312C245.545 329.686 245.237 329.851 244.988 329.641C244.689 329.39 244.649 328.932 244.858 328.684C245.109 328.385 245.376 328.27 245.476 328.354Z" fill="url(#paint53_linear_203_930)"/>
<path id="Vector_55" d="M90.2558 669.969C88.8948 670.088 86.5625 670.956 85.0515 671.852C82.7434 673.215 82.0766 674.077 80.5579 677.606C79.0236 680.99 78.8144 682.3 79.0292 685.64L79.3448 689.643L74.381 690.504C68.0491 691.691 60.0869 691.855 51.9317 691.046C46.6446 690.539 44.0343 689.916 37.251 687.466C32.7439 685.792 28.4266 683.981 27.6419 683.481C26.8797 682.921 25.7608 682.574 25.1603 682.698C24.1648 682.953 24.1195 683.075 24.7075 683.917C26.3949 686.279 30.1883 688.381 37.6415 691.08C44.2803 693.546 46.6853 694.162 52.8321 694.78C61.0255 695.672 68.8051 695.44 76.209 694.166C81.2946 693.35 81.2946 693.35 82.3262 695.051C84.0378 697.907 89.5374 703.626 93.5464 706.641C100.818 712.256 108.767 715.486 124.855 719.38L128.037 720.146L128.686 723.994C130.472 734.301 141.381 745.983 153.379 750.44C161.967 753.63 174.351 754.622 187.048 753.094C194.149 752.263 198.671 751.098 199.078 750.001C199.441 749.025 198.026 748.916 188.984 749.373C172.757 750.145 165.484 749.386 156.348 745.993C146.116 742.192 139.087 736.113 135.222 727.67C132.008 720.649 132.205 720.306 139.156 720.252C156.184 720.125 169.355 711.905 167.2 702.78C165.837 696.932 160.179 694.067 151.457 694.782C145.542 695.221 138.903 698.167 134.822 702.062C132.486 704.247 131.313 706.1 129.597 709.972L127.33 714.957L122.939 714.09C120.55 713.619 115.442 712.068 111.544 710.621C100.825 706.639 93.2277 701.528 88.2278 695.023L86.0062 692.047L90.0009 690.062C94.5805 687.809 98.9344 683.738 100.067 680.689C101.063 678.007 100.314 674.052 98.5375 672.49C96.5627 670.716 93.0005 669.671 90.2558 669.969ZM96.3919 677.521C96.3927 680.504 92.7228 684.414 87.9832 686.538C84.77 687.911 84.2063 687.563 83.7861 684.216C83.3347 680.58 85.7638 676.279 88.9316 675.027C92.411 673.684 96.3543 675.009 96.3919 677.521ZM162.226 702.736C162.784 703.845 163.047 705.192 162.843 705.74C161.507 709.337 153.914 713.732 147.255 714.866C143.614 715.525 134.846 715.807 133.628 715.354C133.263 715.219 133.608 713.543 134.332 711.592C136.755 705.069 143.89 700.227 152.307 699.399C157.835 698.885 160.986 699.917 162.226 702.736Z" fill="url(#paint54_linear_203_930)"/>
<path id="Vector_56" d="M972.225 397.051C962.04 392.983 946.931 394.484 935.822 400.647C931.905 402.868 930.993 402.972 927.346 401.191C922.621 398.934 912.476 397.208 908.238 398.029C904.289 398.767 902.051 403.019 903.657 406.719C905.004 409.786 912.06 417.734 917.355 422.261C919.707 424.177 920.629 426.032 920.929 430.106C923.559 457.451 947.95 475.268 973.37 468.382C981.681 466.159 981.826 466.117 990.084 469.482C1003.7 474.844 1012.58 473.793 1013.17 466.795C1013.5 462.462 1008.81 456.193 1002.33 452.474C997.35 449.585 996.987 449.139 997.765 446.641C1002.35 431.358 997.001 413.738 985.022 404.767C982.991 403.151 980.494 401.276 979.52 400.613C978.598 399.857 975.324 398.283 972.225 397.051ZM985.125 412.273C989.819 417.443 993.953 429.994 993.434 437.521C993.144 440.9 992.003 445.151 990.656 447.577C987.858 452.617 983.153 457.575 980.997 457.721C978.894 457.774 961.299 447.272 946.555 437.131C925.976 422.775 926.152 423.117 930.868 414.624C937.293 403.052 950.837 396.897 963.075 399.907C970.401 401.655 980.794 407.548 985.125 412.273ZM925.79 412.781C922.888 418.008 922.495 418.277 920.629 417.242C918.112 415.844 911.895 409.461 909.833 406.363C909.118 405.233 908.983 403.938 909.667 403.585C911.626 402.475 922.744 403.764 925.915 405.525L928.899 407.182L925.79 412.781ZM1005.15 462.342C1006.6 464.124 1007.29 465.969 1006.74 466.519C1005 468.116 999.442 467.352 993.214 464.504L987.401 462.009L989.463 459.614C994.231 454.324 994.085 454.366 998.469 456.799C1000.8 458.094 1003.79 460.611 1005.15 462.342ZM953.559 448.468C964.097 455.418 972.863 461.385 972.987 461.82C973.412 463.033 966.645 463.793 959.93 463.361C950.552 462.672 940.253 456.831 934.388 448.935C930.513 443.609 926.462 433.545 927.499 431.678C927.758 431.212 929.395 431.999 931.198 433.366C932.907 434.682 943.021 441.518 953.559 448.468Z" fill="url(#paint55_linear_203_930)"/>
<path id="Vector_57" d="M164.655 465.827C161.926 466.998 158.612 470.965 158.158 473.631C156.858 480.264 163.745 487.158 173.296 488.979C177.909 489.824 180.963 489.174 183.562 486.703C185.446 484.882 185.771 484.166 185.771 481.565C185.771 475.842 181.807 471.485 176.09 470.9C169.593 470.314 166.864 473.826 169.593 479.419C171.997 484.361 174.79 484.231 173.426 479.289C173.036 477.793 172.906 476.297 173.101 475.972C174.271 474.086 180.118 476.688 181.223 479.614C182.132 481.89 182.067 482.28 180.573 483.776C176.739 487.613 163.875 482.801 162.121 476.818C161.471 474.737 163.29 470.965 165.759 469.469C167.514 468.363 168.878 468.168 173.621 468.233C176.739 468.298 179.468 468.168 179.663 467.973C181.937 465.697 169.073 463.876 164.655 465.827Z" fill="url(#paint56_linear_203_930)"/>
<path id="Vector_58" d="M767.655 496.827C764.926 497.998 761.612 501.965 761.158 504.631C759.858 511.264 766.745 518.158 776.296 519.979C780.909 520.824 783.963 520.174 786.562 517.703C788.446 515.882 788.771 515.166 788.771 512.565C788.771 506.842 784.807 502.485 779.09 501.9C772.593 501.314 769.864 504.826 772.593 510.419C774.997 515.361 777.79 515.231 776.426 510.289C776.036 508.793 775.906 507.297 776.101 506.972C777.271 505.086 783.118 507.688 784.223 510.614C785.132 512.89 785.067 513.28 783.573 514.776C779.739 518.613 766.875 513.801 765.121 507.818C764.471 505.737 766.29 501.965 768.759 500.469C770.514 499.363 771.878 499.168 776.621 499.233C779.739 499.298 782.468 499.168 782.663 498.973C784.937 496.697 772.073 494.876 767.655 496.827Z" fill="url(#paint57_linear_203_930)"/>
<path id="Vector_59" d="M869.655 625.827C866.926 626.998 863.612 630.965 863.158 633.631C861.858 640.264 868.745 647.158 878.296 648.979C882.909 649.824 885.963 649.174 888.562 646.703C890.446 644.882 890.771 644.166 890.771 641.565C890.771 635.842 886.807 631.485 881.09 630.9C874.593 630.314 871.864 633.826 874.593 639.419C876.997 644.361 879.79 644.231 878.426 639.289C878.036 637.793 877.906 636.297 878.101 635.972C879.271 634.086 885.118 636.688 886.223 639.614C887.132 641.89 887.067 642.28 885.573 643.776C881.739 647.613 868.875 642.801 867.121 636.818C866.471 634.737 868.29 630.965 870.759 629.469C872.514 628.363 873.878 628.168 878.621 628.233C881.739 628.298 884.468 628.168 884.663 627.973C886.937 625.697 874.073 623.876 869.655 625.827Z" fill="url(#paint58_linear_203_930)"/>
<g id="Group 8">
<path id="Vector_60" d="M57.1996 571.427C59.7731 572.529 60.0955 571.012 57.9827 567.704C55.227 563.384 55.1379 557.133 57.8061 552.352C59.8762 548.536 59.1875 547.02 56.1071 548.722C52.521 550.838 50.4505 555.297 50.724 560.353C51.0891 565.776 53.4773 569.82 57.1996 571.427Z" fill="url(#paint59_linear_203_930)"/>
<path id="Vector_61" d="M79.3047 578.817C84.2676 581.205 88.1282 582.03 93.8277 581.936C100.355 581.841 106.055 580.643 111.893 578.112C114.468 577.008 116.72 576.042 116.904 576.041C117.042 575.995 117.271 577.696 117.408 579.856C117.819 585.969 121.539 591.529 125.859 592.446C130.685 593.409 138.04 591.108 145.489 586.324C148.017 584.714 150.73 583.288 151.419 583.242C152.155 583.149 157.486 583.882 163.231 584.845C174.124 586.632 178.122 586.768 179.64 585.251C180.744 584.147 179.779 583.182 176.332 582.035C174.861 581.576 171.691 579.693 169.302 577.855C167.004 576.018 162.915 573.216 160.25 571.563C151.565 566.189 150.049 565.041 149.912 563.708C149.866 563.018 150.281 560.031 150.88 557.043C152.631 548.125 151.117 541.277 146.477 536.545C142.618 532.686 136.459 531.77 129.38 534.071L127.035 534.762L127.359 531.59C128.051 525.752 127.549 517.617 126.31 513.986C124.703 509.345 121.258 505.623 117.719 504.66C113.629 503.605 108.158 505.767 102.87 510.596L98.5015 514.505L97.3532 512.805C87.1103 497.872 75.0257 489.926 63.3966 490.528C59.4896 490.76 54.4328 492.693 52.3174 494.808C50.3401 496.786 48.2694 501.889 48.0838 505.474C47.436 514.851 54.6479 523.994 69.582 532.766C72.7985 534.695 75.6014 536.578 75.785 537.038C76.0146 537.451 74.6348 539.474 72.1055 542.371C65.7591 549.636 64.2866 553.222 65.2028 559.749C66.2563 567.516 72.09 575.465 79.3047 578.817ZM69.6594 563.837C66.6752 556.439 67.9183 551.979 75.0004 543.887C81.6227 536.346 81.4391 535.886 70.5029 529.272C65.8159 526.425 63.105 524.358 59.2459 520.499C54.6517 515.996 54.0086 515.077 52.7692 511.631C48.4083 499.728 58.4323 491.082 71.2999 495.765C78.8826 498.473 85.4528 503.939 92.2511 513.129C95.7421 517.816 96.3394 518.413 97.902 518.78C99.9242 519.147 99.5564 519.423 105.12 514.042C117.72 501.81 126.036 509.574 123.452 531.27C122.99 535.223 122.943 538.762 123.264 539.084C124.137 539.957 125.7 539.68 128.734 538.208C134.159 535.632 140.686 535.996 143.856 539.166C147.439 542.75 148.539 550.563 146.604 559.297C145.729 563.112 146.188 565.686 148.025 567.524C148.577 568.075 152.436 570.739 156.572 573.403C166.864 580.109 168.748 581.441 168.196 581.993C167.921 582.269 164.152 581.811 159.786 580.939C155.42 580.16 151.145 579.657 150.318 579.841C149.444 580.071 147.054 581.359 144.985 582.693C137.582 587.523 129.951 590.1 126.183 588.999C122.552 587.851 119.751 581.004 120.857 575.764C121.548 572.776 120.813 570.846 119.113 570.892C118.423 570.939 115.987 571.997 113.642 573.147C102.056 579.22 88.5429 579.778 79.1687 574.634C75.6305 572.659 71.1284 567.606 69.6594 563.837Z" fill="url(#paint60_linear_203_930)"/>
<path id="Vector_62" d="M99.5222 592.413C100.625 592.32 103.245 591.905 105.314 591.399L109.129 590.524L110.691 593.649C112.298 597.003 114.044 598.473 115.055 597.462C115.377 597.14 115.424 596.174 115.148 595.255C114.873 594.428 114.277 591.9 113.91 589.694C112.764 584.041 111.936 583.858 103.431 587.585C99.6156 589.195 96.5353 590.714 96.5352 590.989C96.5347 592.001 97.6836 592.506 99.5222 592.413Z" fill="url(#paint61_linear_203_930)"/>
<path id="Vector_63" d="M154.769 595.237C159.457 595.051 165.479 594.266 166.95 593.622C168.559 592.84 167.962 591.599 165.894 591.463C163.09 591.326 151.323 592.894 150.771 593.446C149.575 594.642 151.229 595.376 154.769 595.237Z" fill="url(#paint62_linear_203_930)"/>
<path id="Vector_64" d="M169.258 571.375C175.692 574.405 178.404 574.726 177.118 572.244C176.521 571.095 167.146 566.412 165.032 566.229C161.861 565.908 164.387 568.987 169.258 571.375Z" fill="url(#paint63_linear_203_930)"/>
<path id="Vector_65" d="M106.736 499.747C107.195 499.839 108.804 499.516 110.367 499.056C113.907 497.905 116.527 497.95 120.295 499.419C124.293 500.934 128.566 505.115 130.448 509.48C131.78 512.467 131.918 512.697 132.929 512.237C134.4 511.593 133.897 507.043 132.014 503.688C129.075 498.45 121.585 493.811 116.207 493.951C112.806 494.045 108.53 495.564 106.645 497.449C105.173 498.921 105.173 499.472 106.736 499.747Z" fill="url(#paint64_linear_203_930)"/>
</g>
<path id="Vector_66" d="M472.45 61.4156C469.41 62.947 465.844 66.7444 464.696 69.7614C462.854 74.6169 461.989 82.7155 462.99 86.8894C463.884 90.6205 463.566 90.9644 460.038 90.7402C453.139 90.388 446.995 93.4659 445.913 97.8716C445.094 101.144 446.486 105.558 449.539 109.374C452.39 112.904 458.308 116.969 461.799 117.871C464.283 118.479 464.437 118.843 462.918 121.147C461.063 123.999 461.328 125.942 464.164 129.408C467.904 133.862 472.999 136.719 480.922 138.833C492.099 141.703 502.678 141.24 506.227 137.648C507.483 136.477 510.576 129.316 511.413 125.838C511.446 125.696 512.72 125.993 514.276 126.355C516.336 126.865 517.724 126.8 519.685 126.062C529.412 122.325 542.082 102.435 543.313 88.8989C543.733 84.5183 541.916 76.6613 539.876 74.0071C536.467 69.5413 530.367 68.0613 526.166 70.6065C523.361 72.2821 520.975 74.5929 518.309 78.2415C517.144 79.7915 516.044 81.0582 515.792 81.1187C515.539 81.1793 514.639 79.6563 513.712 77.7386C510.7 71.3051 505.655 68.1006 500.351 69.1049C497.492 69.7233 497.336 69.6271 495.281 66.9096C493.133 64.0809 488.48 61.1169 484.849 60.1819C483.151 59.7865 475.68 59.8388 474.715 60.2708C474.54 60.3795 473.512 60.8268 472.45 61.4156ZM481.457 65.5425C485.235 65.9743 488.67 67.759 491.119 70.4488L493.239 72.883L491.629 76.479C489.599 81.1118 489.129 84.1671 489.715 88.8416C490.203 92.269 490.041 92.7091 488.194 94.757C484.946 98.2106 483.452 107.864 485.011 114.646C485.315 115.911 485.398 117.095 485.254 117.33C485.125 117.628 483.063 117.387 480.672 116.89C478.281 116.394 474.738 116.106 472.752 116.181C466.287 116.527 459.087 112.97 454.116 107.006C451.498 103.889 450.533 100.977 451.42 98.8251C452.37 96.6579 457.675 95.6536 462.929 96.6678C467.286 97.5626 469.763 97.3032 470.248 95.9831C470.41 95.5431 469.965 92.5734 469.255 89.333C467.236 79.5183 468.763 71.3947 473.335 67.8911C476.082 65.6944 477.899 65.1919 481.457 65.5425ZM503.206 73.7703C506.257 74.5103 508.87 78.1638 510.656 84.2224C513.269 92.8917 515.003 92.8773 520.871 83.9135C525.668 76.6109 528.845 73.9768 532.118 74.5297C534.824 74.9508 536.55 77.4126 537.779 82.5351C538.916 87.2781 538.008 93.247 535.092 100.032C531.288 108.969 521.944 120.438 517.585 121.483C515.563 121.968 512.068 121.602 511.901 120.906C511.919 120.701 511.843 118.713 511.848 116.505C511.881 111.348 510.047 103.696 507.891 99.9992C505.379 95.6526 501.702 92.856 497.203 91.9283C493.476 91.15 493.319 91.0539 493.228 89.0025C493.067 84.4269 494.755 79.2071 497.462 76.2844C500.376 73.1114 500.502 73.0811 503.206 73.7703ZM499.708 98.751C502.447 100.702 504.618 104.462 505.816 109.458C507.526 116.872 506.313 128.532 503.073 134.525L501.501 137.443L496.507 137.236C486.456 136.837 476.057 133.311 470.194 128.364C467.004 125.651 466.661 123.66 469.132 122.265C471.842 120.746 474.867 120.823 481.738 122.453C488.248 123.968 489.982 123.954 490.801 122.353C491.059 121.757 490.869 118.458 490.415 114.889C489.447 107.23 489.71 102.753 491.3 99.6299C492.28 97.5892 492.74 97.2783 494.775 97.1249C496.4 96.936 497.939 97.5033 499.708 98.751Z" fill="url(#paint65_linear_203_930)"/>
</g>
</g>
</g>
<defs>
<linearGradient id="paint0_linear_203_930" x1="634.928" y1="97.579" x2="627.99" y2="252.193" gradientUnits="userSpaceOnUse">
<stop stop-color="#42307D"/>
<stop offset="1" stop-color="#7F56D9"/>
</linearGradient>
<linearGradient id="paint1_linear_203_930" x1="649.152" y1="216.072" x2="657.142" y2="234.021" gradientUnits="userSpaceOnUse">
<stop stop-color="#42307D"/>
<stop offset="1" stop-color="#7F56D9"/>
</linearGradient>
<linearGradient id="paint2_linear_203_930" x1="677.921" y1="237.367" x2="686.081" y2="251.848" gradientUnits="userSpaceOnUse">
<stop stop-color="#42307D"/>
<stop offset="1" stop-color="#7F56D9"/>
</linearGradient>
<linearGradient id="paint3_linear_203_930" x1="609.535" y1="198.946" x2="615.936" y2="213.55" gradientUnits="userSpaceOnUse">
<stop stop-color="#42307D"/>
<stop offset="1" stop-color="#7F56D9"/>
</linearGradient>
<linearGradient id="paint4_linear_203_930" x1="639.439" y1="243.446" x2="646.727" y2="262.171" gradientUnits="userSpaceOnUse">
<stop stop-color="#42307D"/>
<stop offset="1" stop-color="#7F56D9"/>
</linearGradient>
<linearGradient id="paint5_linear_203_930" x1="604.373" y1="226.217" x2="609.224" y2="237.369" gradientUnits="userSpaceOnUse">
<stop stop-color="#42307D"/>
<stop offset="1" stop-color="#7F56D9"/>
</linearGradient>
<linearGradient id="paint6_linear_203_930" x1="309.675" y1="176" x2="376.038" y2="296.495" gradientUnits="userSpaceOnUse">
<stop stop-color="#42307D"/>
<stop offset="1" stop-color="#7F56D9"/>
</linearGradient>
<linearGradient id="paint7_linear_203_930" x1="331.744" y1="198.207" x2="400.968" y2="310.947" gradientUnits="userSpaceOnUse">
<stop stop-color="#42307D"/>
<stop offset="1" stop-color="#7F56D9"/>
</linearGradient>
<linearGradient id="paint8_linear_203_930" x1="300" y1="229.229" x2="323.215" y2="242.761" gradientUnits="userSpaceOnUse">
<stop stop-color="#42307D"/>
<stop offset="1" stop-color="#7F56D9"/>
</linearGradient>
<linearGradient id="paint9_linear_203_930" x1="468.934" y1="243.626" x2="484.779" y2="249.609" gradientUnits="userSpaceOnUse">
<stop stop-color="#42307D"/>
<stop offset="1" stop-color="#7F56D9"/>
</linearGradient>
<linearGradient id="paint10_linear_203_930" x1="626.998" y1="313.737" x2="771.899" y2="444.902" gradientUnits="userSpaceOnUse">
<stop stop-color="#42307D"/>
<stop offset="1" stop-color="#7F56D9"/>
</linearGradient>
<linearGradient id="paint11_linear_203_930" x1="666.059" y1="339.085" x2="691.404" y2="343.457" gradientUnits="userSpaceOnUse">
<stop stop-color="#42307D"/>
<stop offset="1" stop-color="#7F56D9"/>
</linearGradient>
<linearGradient id="paint12_linear_203_930" x1="722.873" y1="364.35" x2="772.824" y2="396.621" gradientUnits="userSpaceOnUse">
<stop stop-color="#42307D"/>
<stop offset="1" stop-color="#7F56D9"/>
</linearGradient>
<linearGradient id="paint13_linear_203_930" x1="651.085" y1="413.729" x2="659.067" y2="420.514" gradientUnits="userSpaceOnUse">
<stop stop-color="#42307D"/>
<stop offset="1" stop-color="#7F56D9"/>
</linearGradient>
<linearGradient id="paint14_linear_203_930" x1="696.262" y1="424.579" x2="702.513" y2="435.158" gradientUnits="userSpaceOnUse">
<stop stop-color="#42307D"/>
<stop offset="1" stop-color="#7F56D9"/>
</linearGradient>
<linearGradient id="paint15_linear_203_930" x1="197.442" y1="406.822" x2="364.556" y2="371.848" gradientUnits="userSpaceOnUse">
<stop stop-color="#42307D"/>
<stop offset="1" stop-color="#7F56D9"/>
</linearGradient>
<linearGradient id="paint16_linear_203_930" x1="383.943" y1="616.677" x2="383.528" y2="622.917" gradientUnits="userSpaceOnUse">
<stop stop-color="#42307D"/>
<stop offset="1" stop-color="#7F56D9"/>
</linearGradient>
<linearGradient id="paint17_linear_203_930" x1="307.741" y1="569.158" x2="316.159" y2="605.984" gradientUnits="userSpaceOnUse">
<stop stop-color="#42307D"/>
<stop offset="1" stop-color="#7F56D9"/>
</linearGradient>
<linearGradient id="paint18_linear_203_930" x1="355.433" y1="603.898" x2="354.274" y2="609.888" gradientUnits="userSpaceOnUse">
<stop stop-color="#42307D"/>
<stop offset="1" stop-color="#7F56D9"/>
</linearGradient>
<linearGradient id="paint19_linear_203_930" x1="341.081" y1="597.129" x2="339.482" y2="604.218" gradientUnits="userSpaceOnUse">
<stop stop-color="#42307D"/>
<stop offset="1" stop-color="#7F56D9"/>
</linearGradient>
<linearGradient id="paint20_linear_203_930" x1="324.122" y1="590.002" x2="322.34" y2="597.692" gradientUnits="userSpaceOnUse">
<stop stop-color="#42307D"/>
<stop offset="1" stop-color="#7F56D9"/>
</linearGradient>
<linearGradient id="paint21_linear_203_930" x1="319.081" y1="599.433" x2="317.877" y2="606.968" gradientUnits="userSpaceOnUse">
<stop stop-color="#42307D"/>
<stop offset="1" stop-color="#7F56D9"/>
</linearGradient>
<linearGradient id="paint22_linear_203_930" x1="204.615" y1="520.162" x2="210.967" y2="555.224" gradientUnits="userSpaceOnUse">
<stop stop-color="#42307D"/>
<stop offset="1" stop-color="#7F56D9"/>
</linearGradient>
<linearGradient id="paint23_linear_203_930" x1="287.192" y1="577.732" x2="285.683" y2="582.442" gradientUnits="userSpaceOnUse">
<stop stop-color="#42307D"/>
<stop offset="1" stop-color="#7F56D9"/>
</linearGradient>
<linearGradient id="paint24_linear_203_930" x1="273.519" y1="570.167" x2="271.906" y2="575.494" gradientUnits="userSpaceOnUse">
<stop stop-color="#42307D"/>
<stop offset="1" stop-color="#7F56D9"/>
</linearGradient>
<linearGradient id="paint25_linear_203_930" x1="339.058" y1="615.96" x2="344.198" y2="650.936" gradientUnits="userSpaceOnUse">
<stop stop-color="#42307D"/>
<stop offset="1" stop-color="#7F56D9"/>
</linearGradient>
<linearGradient id="paint26_linear_203_930" x1="256.39" y1="559.55" x2="255.036" y2="564.397" gradientUnits="userSpaceOnUse">
<stop stop-color="#42307D"/>
<stop offset="1" stop-color="#7F56D9"/>
</linearGradient>
<linearGradient id="paint27_linear_203_930" x1="240.146" y1="549.716" x2="238.534" y2="554.397" gradientUnits="userSpaceOnUse">
<stop stop-color="#42307D"/>
<stop offset="1" stop-color="#7F56D9"/>
</linearGradient>
<linearGradient id="paint28_linear_203_930" x1="296.325" y1="589.647" x2="297.993" y2="596.235" gradientUnits="userSpaceOnUse">
<stop stop-color="#42307D"/>
<stop offset="1" stop-color="#7F56D9"/>
</linearGradient>
<linearGradient id="paint29_linear_203_930" x1="327.892" y1="612.443" x2="327.533" y2="620.549" gradientUnits="userSpaceOnUse">
<stop stop-color="#42307D"/>
<stop offset="1" stop-color="#7F56D9"/>
</linearGradient>
<linearGradient id="paint30_linear_203_930" x1="224.867" y1="541.526" x2="223.485" y2="547.071" gradientUnits="userSpaceOnUse">
<stop stop-color="#42307D"/>
<stop offset="1" stop-color="#7F56D9"/>
</linearGradient>
<linearGradient id="paint31_linear_203_930" x1="285.436" y1="591.646" x2="288.473" y2="601.364" gradientUnits="userSpaceOnUse">
<stop stop-color="#42307D"/>
<stop offset="1" stop-color="#7F56D9"/>
</linearGradient>
<linearGradient id="paint32_linear_203_930" x1="216.444" y1="553.044" x2="216.651" y2="559.01" gradientUnits="userSpaceOnUse">
<stop stop-color="#42307D"/>
<stop offset="1" stop-color="#7F56D9"/>
</linearGradient>
<linearGradient id="paint33_linear_203_930" x1="323.606" y1="627.731" x2="323.269" y2="633.088" gradientUnits="userSpaceOnUse">
<stop stop-color="#42307D"/>
<stop offset="1" stop-color="#7F56D9"/>
</linearGradient>
<linearGradient id="paint34_linear_203_930" x1="312.868" y1="624.996" x2="312.542" y2="632.597" gradientUnits="userSpaceOnUse">
<stop stop-color="#42307D"/>
<stop offset="1" stop-color="#7F56D9"/>
</linearGradient>
<linearGradient id="paint35_linear_203_930" x1="220.65" y1="563.403" x2="222.023" y2="571.155" gradientUnits="userSpaceOnUse">
<stop stop-color="#42307D"/>
<stop offset="1" stop-color="#7F56D9"/>
</linearGradient>
<linearGradient id="paint36_linear_203_930" x1="266.451" y1="597.25" x2="268.54" y2="607.367" gradientUnits="userSpaceOnUse">
<stop stop-color="#42307D"/>
<stop offset="1" stop-color="#7F56D9"/>
</linearGradient>
<linearGradient id="paint37_linear_203_930" x1="223.148" y1="577.513" x2="224.055" y2="585.186" gradientUnits="userSpaceOnUse">
<stop stop-color="#42307D"/>
<stop offset="1" stop-color="#7F56D9"/>
</linearGradient>
<linearGradient id="paint38_linear_203_930" x1="278.606" y1="616.161" x2="277.296" y2="625.303" gradientUnits="userSpaceOnUse">
<stop stop-color="#42307D"/>
<stop offset="1" stop-color="#7F56D9"/>
</linearGradient>
<linearGradient id="paint39_linear_203_930" x1="251.106" y1="601.389" x2="254.233" y2="611.412" gradientUnits="userSpaceOnUse">
<stop stop-color="#42307D"/>
<stop offset="1" stop-color="#7F56D9"/>
</linearGradient>
<linearGradient id="paint40_linear_203_930" x1="262.482" y1="611.311" x2="261.058" y2="621.24" gradientUnits="userSpaceOnUse">
<stop stop-color="#42307D"/>
<stop offset="1" stop-color="#7F56D9"/>
</linearGradient>
<linearGradient id="paint41_linear_203_930" x1="226.553" y1="590.989" x2="232.834" y2="626.521" gradientUnits="userSpaceOnUse">
<stop stop-color="#42307D"/>
<stop offset="1" stop-color="#7F56D9"/>
</linearGradient>
<linearGradient id="paint42_linear_203_930" x1="246.953" y1="608.397" x2="245.822" y2="615.547" gradientUnits="userSpaceOnUse">
<stop stop-color="#42307D"/>
<stop offset="1" stop-color="#7F56D9"/>
</linearGradient>
<linearGradient id="paint43_linear_203_930" x1="754.999" y1="677.763" x2="935.933" y2="678.199" gradientUnits="userSpaceOnUse">
<stop stop-color="#42307D"/>
<stop offset="1" stop-color="#7F56D9"/>
</linearGradient>
<linearGradient id="paint44_linear_203_930" x1="855.581" y1="700.3" x2="889.457" y2="711.624" gradientUnits="userSpaceOnUse">
<stop stop-color="#42307D"/>
<stop offset="1" stop-color="#7F56D9"/>
</linearGradient>
<linearGradient id="paint45_linear_203_930" x1="924.685" y1="638.688" x2="1020.44" y2="647.668" gradientUnits="userSpaceOnUse">
<stop stop-color="#42307D"/>
<stop offset="1" stop-color="#7F56D9"/>
</linearGradient>
<linearGradient id="paint46_linear_203_930" x1="291.811" y1="636.999" x2="253.174" y2="758.574" gradientUnits="userSpaceOnUse">
<stop stop-color="#42307D"/>
<stop offset="1" stop-color="#7F56D9"/>
</linearGradient>
<linearGradient id="paint47_linear_203_930" x1="774.691" y1="380.494" x2="819.43" y2="365.585" gradientUnits="userSpaceOnUse">
<stop stop-color="#42307D"/>
<stop offset="1" stop-color="#7F56D9"/>
</linearGradient>
<linearGradient id="paint48_linear_203_930" x1="684.395" y1="524.291" x2="761.094" y2="548.446" gradientUnits="userSpaceOnUse">
<stop stop-color="#42307D"/>
<stop offset="1" stop-color="#7F56D9"/>
</linearGradient>
<linearGradient id="paint49_linear_203_930" x1="340.207" y1="433.632" x2="443.533" y2="366.765" gradientUnits="userSpaceOnUse">
<stop stop-color="#42307D"/>
<stop offset="1" stop-color="#7F56D9"/>
</linearGradient>
<linearGradient id="paint50_linear_203_930" x1="795.111" y1="534" x2="839.08" y2="628.139" gradientUnits="userSpaceOnUse">
<stop stop-color="#42307D"/>
<stop offset="1" stop-color="#7F56D9"/>
</linearGradient>
<linearGradient id="paint51_linear_203_930" x1="818.999" y1="465" x2="861.294" y2="513.617" gradientUnits="userSpaceOnUse">
<stop stop-color="#42307D"/>
<stop offset="1" stop-color="#7F56D9"/>
</linearGradient>
<linearGradient id="paint52_linear_203_930" x1="125.404" y1="643.392" x2="189.835" y2="642.319" gradientUnits="userSpaceOnUse">
<stop stop-color="#42307D"/>
<stop offset="1" stop-color="#7F56D9"/>
</linearGradient>
<linearGradient id="paint53_linear_203_930" x1="211" y1="319.567" x2="275.43" y2="318.495" gradientUnits="userSpaceOnUse">
<stop stop-color="#42307D"/>
<stop offset="1" stop-color="#7F56D9"/>
</linearGradient>
<linearGradient id="paint54_linear_203_930" x1="36.9979" y1="648.999" x2="29.4776" y2="753.507" gradientUnits="userSpaceOnUse">
<stop stop-color="#42307D"/>
<stop offset="1" stop-color="#7F56D9"/>
</linearGradient>
<linearGradient id="paint55_linear_203_930" x1="922.006" y1="368.583" x2="924.224" y2="496.693" gradientUnits="userSpaceOnUse">
<stop stop-color="#42307D"/>
<stop offset="1" stop-color="#7F56D9"/>
</linearGradient>
<linearGradient id="paint56_linear_203_930" x1="158" y1="465" x2="182.118" y2="492.53" gradientUnits="userSpaceOnUse">
<stop stop-color="#42307D"/>
<stop offset="1" stop-color="#7F56D9"/>
</linearGradient>
<linearGradient id="paint57_linear_203_930" x1="761" y1="496" x2="785.118" y2="523.53" gradientUnits="userSpaceOnUse">
<stop stop-color="#42307D"/>
<stop offset="1" stop-color="#7F56D9"/>
</linearGradient>
<linearGradient id="paint58_linear_203_930" x1="863" y1="625" x2="887.118" y2="652.53" gradientUnits="userSpaceOnUse">
<stop stop-color="#42307D"/>
<stop offset="1" stop-color="#7F56D9"/>
</linearGradient>
<linearGradient id="paint59_linear_203_930" x1="57.8089" y1="572.935" x2="58.1728" y2="546.968" gradientUnits="userSpaceOnUse">
<stop stop-color="#42307D"/>
<stop offset="1" stop-color="#7F56D9"/>
</linearGradient>
<linearGradient id="paint60_linear_203_930" x1="131.731" y1="633.163" x2="173.905" y2="494.404" gradientUnits="userSpaceOnUse">
<stop stop-color="#42307D"/>
<stop offset="1" stop-color="#7F56D9"/>
</linearGradient>
<linearGradient id="paint61_linear_203_930" x1="108.794" y1="603.723" x2="110.435" y2="580.59" gradientUnits="userSpaceOnUse">
<stop stop-color="#42307D"/>
<stop offset="1" stop-color="#7F56D9"/>
</linearGradient>
<linearGradient id="paint62_linear_203_930" x1="158.388" y1="602.386" x2="156.906" y2="584.574" gradientUnits="userSpaceOnUse">
<stop stop-color="#42307D"/>
<stop offset="1" stop-color="#7F56D9"/>
</linearGradient>
<linearGradient id="paint63_linear_203_930" x1="173.621" y1="577.315" x2="177.916" y2="566.918" gradientUnits="userSpaceOnUse">
<stop stop-color="#42307D"/>
<stop offset="1" stop-color="#7F56D9"/>
</linearGradient>
<linearGradient id="paint64_linear_203_930" x1="125.795" y1="519.461" x2="133.58" y2="492.359" gradientUnits="userSpaceOnUse">
<stop stop-color="#42307D"/>
<stop offset="1" stop-color="#7F56D9"/>
</linearGradient>
<linearGradient id="paint65_linear_203_930" x1="437.999" y1="69.0577" x2="541.102" y2="144.657" gradientUnits="userSpaceOnUse">
<stop stop-color="#42307D"/>
<stop offset="1" stop-color="#7F56D9"/>
</linearGradient>
</defs>
</svg>
