<svg width="1440" height="846" viewBox="0 0 1440 846" fill="none" xmlns="http://www.w3.org/2000/svg">
<path d="M909.459 242.33C906.896 241.915 902.176 241.959 899.056 242.457C891.96 243.661 878.721 248.949 871.17 253.634C868.008 255.569 865.277 257.139 865.049 257C864.897 256.907 864.787 255.378 864.968 253.714C865.245 249.498 863.624 241.724 861.951 238.824C861.106 237.474 858.876 235.487 856.9 234.281C853.631 232.288 852.837 232.221 848.215 233.473C842.001 235.111 836.915 239.003 832.142 245.801C825.796 254.667 826.822 254.353 819.22 249.716C809.718 243.92 802.198 242.569 796.339 245.677C790.742 248.526 789.22 253.757 791.756 261.568C792.593 263.958 794.49 267.516 796.125 269.453C799.272 273.356 814.468 285.549 822.585 290.709C839.351 301.353 901.181 337.293 904.458 338.248C909.44 339.826 919.843 337.819 925.583 334.222C930.433 331.229 935.421 324.249 935.744 319.958C936.403 309.815 929.615 302.647 913.197 296.391C909.131 294.85 905.706 293.283 905.571 292.992C905.558 292.671 907.807 290.18 910.639 287.419C921.013 277.251 926.252 265.414 924.369 256.018C922.795 248.168 918.2 243.903 909.459 242.33ZM917.841 254.751C921.619 262.066 916.38 273.903 904.364 285.053C898.578 290.606 898.038 291.32 898.051 293.521C898.239 296.976 898.771 297.3 912.402 302.483C920.459 305.518 922.376 306.479 925.484 309.419C929.746 313.376 930.909 317.112 929.378 321.503C927.645 326.396 923.724 329.747 917.324 331.689C906.99 334.781 910.034 336.116 868.255 310.736C847.912 298.432 825.956 285.353 819.356 281.64C805.926 274.075 801.724 270.363 798.082 263.339C796.877 261.038 796.019 257.487 796.187 255.502C796.321 252.034 796.46 251.805 798.959 250.615C803.497 248.477 808.589 249.704 817.711 255.268C823.564 258.838 826.258 260.064 827.284 259.75C828.111 259.42 831.239 256.003 834.218 251.974C843.075 240.36 849.782 236.204 854.875 239.31C858.22 241.351 859.968 250.455 858.548 258.254C857.668 263.459 857.736 264.544 859.332 265.518C860.928 266.492 862.537 265.907 870.333 261.162C881.92 254.136 885.537 252.48 895.243 249.735C907.029 246.485 914.41 248.064 917.841 254.751Z" fill="url(#paint0_linear_35_578)"/>
<path d="M846.792 314.974C842.536 316.137 835.31 320.289 834.15 322.192C832.896 324.246 835.084 325.789 838.221 325.093C845.014 323.703 853.404 317.129 851.482 314.808C851.089 314.255 848.966 314.317 846.792 314.974Z" fill="url(#paint1_linear_35_578)"/>
<path d="M875.202 334.913C874.054 335.257 871.246 336.781 868.76 338.292C860.61 343.447 860.392 347.908 868.514 344.51C876.589 341.188 882.505 332.687 875.202 334.913Z" fill="url(#paint2_linear_35_578)"/>
<path d="M806.32 296.342C803.352 296.933 797.337 300.468 796.316 302.142C795.341 303.739 796.309 305.06 798.492 305.243C802.828 305.487 812.569 298.066 809.985 296.49C809.377 296.119 807.743 296.062 806.32 296.342Z" fill="url(#paint3_linear_35_578)"/>
<path d="M836.341 343.051C833.555 343.857 829.662 345.45 827.683 346.643C824.766 348.518 824.319 349.081 824.767 350.398C825.498 352.619 828.306 352.974 832.777 351.63C837.049 350.269 841.936 346.36 842.413 344.04C842.842 341.797 841.896 341.637 836.341 343.051Z" fill="url(#paint4_linear_35_578)"/>
<path d="M801.066 322.055C799.647 321.816 793.632 325.351 792.564 327.101C792.193 327.709 792.324 328.52 792.856 328.845C794.681 329.958 797.467 329.152 800.603 326.575C804.169 323.635 804.3 322.567 801.066 322.055Z" fill="url(#paint5_linear_35_578)"/>
<path d="M529.602 269.878C499.91 275.276 493.803 296.931 516.153 317.677C531.227 331.594 556.825 344.145 576.057 347.007C583.334 348.047 594.119 347.462 599.577 345.706C607.633 343.17 612.636 336.536 611.467 330.033C609.648 320.213 597.043 310.523 580.345 306.231C569.885 303.565 553.057 303.305 552.212 305.841C551.888 306.816 553.187 307.012 564.102 307.857C575.083 308.702 583.269 310.783 591.39 314.75C601.461 319.693 607.309 326.196 607.309 332.439C607.309 339.073 598.472 343.69 585.608 343.69C564.362 343.69 535.125 330.618 517.972 313.45C509.851 305.321 506.992 300.248 506.992 293.615C506.927 290.103 507.252 288.867 508.746 286.266C517.323 271.634 548.899 269.228 585.868 280.413C606.074 286.461 620.758 292.639 632.907 300.053C641.484 305.321 648.241 308.052 643.888 304.475C640.379 301.549 624.461 291.794 618.029 288.607C601.591 280.413 576.512 272.544 558.515 269.878C550.263 268.707 536.035 268.707 529.602 269.878Z" fill="url(#paint6_linear_35_578)"/>
<path d="M549.808 291.729C544.546 292.51 539.478 295.111 537.854 297.777C535.84 301.029 536.034 305.646 538.373 309.288C542.532 315.921 554.551 322.945 567.156 326.131C573.263 327.692 583.529 328.603 584.179 327.562C584.828 326.522 583.919 326.196 578.331 325.416C563.063 323.335 543.116 312.54 540.972 305.256C539.868 301.679 540.972 299.663 545.195 297.582C547.924 296.216 549.549 295.956 556.89 295.696C566.051 295.371 571.574 296.151 583.269 299.208C597.823 303.045 615.04 310.589 626.41 318.132C634.142 323.205 643.238 332.114 645.902 337.122C649.41 343.69 648.111 350.063 642.263 355.071C630.503 365.151 606.399 367.817 577.356 362.159C562.673 359.298 557.93 357.607 531.421 345.641C528.043 344.145 525.184 343.105 524.989 343.3C524.015 344.21 525.899 345.901 532.006 349.478C544.676 357.022 561.503 363.135 577.681 366.061C602.566 370.679 622.902 369.508 636.871 362.615C643.108 359.493 647.006 356.307 649.41 352.274C650.905 349.673 651.164 348.503 651.164 344.341C651.164 340.243 650.84 338.813 649.215 335.561C646.551 330.228 636.741 320.474 628.814 315.206C604.775 299.338 568.975 288.673 549.808 291.729Z" fill="url(#paint7_linear_35_578)"/>
<path d="M493.283 322.944C492.373 324.31 493.738 329.513 496.207 334.455C500.105 342.194 508.551 351.624 508.551 348.177C508.551 347.722 506.472 344.21 503.938 340.308C501.405 336.471 498.221 330.813 496.792 327.757C495.362 324.7 494.063 322.229 493.933 322.229C493.803 322.229 493.478 322.554 493.283 322.944Z" fill="url(#paint8_linear_35_578)"/>
<path d="M666.108 337.187C665.913 337.512 666.238 339.463 666.823 341.414C667.797 344.796 667.797 345.316 666.758 348.438C666.173 350.323 664.809 353.315 663.769 355.136C661.69 358.843 661.365 360.599 662.859 360.599C664.029 360.599 667.342 356.176 669.422 351.819C671.631 347.202 671.501 343.43 669.032 339.593C667.018 336.342 666.758 336.146 666.108 337.187Z" fill="url(#paint9_linear_35_578)"/>
<path d="M929.132 404.115C928.05 404.804 923.808 408.075 919.761 411.339L912.361 417.258L907.282 415.157C900.423 412.337 890.245 409.438 887.388 409.537C885.895 409.589 884.677 410.087 883.927 410.959C882.179 413.037 883.687 415.262 893.311 424.688C898.091 429.402 901.876 433.565 901.762 434.024C901.646 434.419 898.998 436.789 895.9 439.304C892.802 441.819 889.274 445.066 888.023 446.476C885.772 449.027 885.772 449.027 885.64 456.45C885.413 468.626 881.003 483.876 874.61 494.445C866.068 508.667 850.816 524.36 833.817 536.534C826.143 542.072 824.201 544.157 824.98 546.017C825.971 548.325 832.918 546.196 851.097 538.015C864.218 532.093 884.016 520.016 897.12 509.865C910.414 499.576 923.112 485.209 927.828 475.024C928.613 473.305 929.976 471.37 930.802 470.821C932.26 469.729 933.087 467.358 935.842 454.963L937.022 449.651L940.766 448.87C947.731 447.261 954.861 444.801 956.182 443.518C956.936 442.776 957.478 441.521 957.448 440.676C957.38 438.727 955.656 437.745 944.383 433.257C939.768 431.401 935.674 429.591 935.34 429.342C934.937 428.966 934.871 425.194 935.203 419.781C935.705 409.938 935.012 404.952 933.014 403.59C931.482 402.537 931.482 402.537 929.132 404.115ZM931.477 413.599C931.574 416.394 931.484 421.277 931.268 424.408L930.947 430.146L932.894 431.9C934.032 432.837 938.396 434.962 942.548 436.575C950.325 439.623 952.773 440.839 952.209 441.444C952.019 441.581 948.291 442.817 943.847 444.013C935.545 446.449 933.381 447.761 932.847 451.098C931.926 456.401 930.086 465.184 929.603 466.242C929.057 467.368 928.925 467.307 927.697 465.658C926.947 464.643 924.603 460.82 922.459 457.121C920.315 453.421 917.714 449.672 916.704 448.666C914.489 446.661 911.95 446.554 902.457 448.381C895.675 449.658 890.812 450.023 890.785 449.243C890.776 448.983 894.178 445.871 898.348 442.407C904.793 437.042 905.921 435.832 905.869 434.337C905.79 432.062 903.615 429.34 895.73 421.35C890.205 415.751 888.845 414.041 889.884 414.005C890.079 413.998 895.142 415.644 901.06 417.586L911.85 421.245L916.172 418.426C918.525 416.913 922.646 413.906 925.176 411.866C927.768 409.759 930.246 408.111 930.575 408.23C931.034 408.344 931.371 410.544 931.477 413.599ZM909.952 458.272C902.389 483.783 885.686 506.358 862.452 522.458C856.677 526.499 846.854 531.916 846.824 531.071C846.82 530.941 850.094 527.899 854.063 524.247C863.265 515.923 872.146 505.853 876.953 498.268C884.41 486.491 888.93 472.538 889.038 460.691L889.186 453.723L894.118 453.487C896.845 453.392 901.702 452.832 904.868 452.267C908.098 451.699 910.951 451.469 911.22 451.72C911.551 451.904 910.941 454.919 909.952 458.272ZM918.344 458.435C919.176 459.903 921.237 463.085 922.881 465.5C924.59 467.913 925.966 470.078 925.973 470.273C926 471.053 920.754 479.109 916.282 485.121C904.792 500.553 885.119 516.204 860.737 529.22C848.353 535.768 843.866 537.616 852.402 532.569C867.247 523.853 876.619 516.695 886.604 506.586C900.043 492.974 909.947 474.93 913.506 457.627C914.447 452.909 914.444 452.844 915.665 454.299C916.277 455.058 917.511 456.902 918.344 458.435Z" fill="url(#paint10_linear_35_578)"/>
<path d="M869.127 432.167C869.006 432.431 868.755 438.296 868.603 445.134C868.232 460.634 866.904 471.027 863.616 483.049C860.906 492.97 860.654 495.061 862.017 495.013C863.9 494.948 866.646 489.777 869.399 481.091C871.629 474.181 872.536 468.488 872.847 458.717C873.35 445.164 871.09 428.78 869.127 432.167Z" fill="url(#paint11_linear_35_578)"/>
<path d="M950.106 457.59C949.615 458.453 948.231 461.625 946.971 464.662C942.356 475.885 934.516 487.871 923.516 500.552C917.513 507.398 916.477 509.386 918.814 509.305C920.438 509.249 928.453 502.332 933.015 497.033C937.14 492.269 944.106 481.355 946.946 475.14C950.693 467.005 953.367 456.045 951.549 456.109C951.225 456.12 950.598 456.792 950.106 457.59Z" fill="url(#paint12_linear_35_578)"/>
<path d="M846.79 509.533C844.039 512.688 843.583 514.525 845.466 514.46C846.7 514.417 851.25 508.793 851.2 507.363C851.141 505.673 849.35 506.516 846.79 509.533Z" fill="url(#paint13_linear_35_578)"/>
<path d="M894.674 519.906C891.482 521.578 889.451 523.016 889.474 523.666C889.521 525.03 890.816 524.855 895.748 522.731C900.422 520.682 902.699 518.846 902.011 517.763C901.258 516.683 900.226 516.914 894.674 519.906Z" fill="url(#paint14_linear_35_578)"/>
<path d="M398.865 495.04C396.136 500.041 396.561 505.981 400.178 512.911C407.812 527.444 430.804 538.637 452.858 538.495C459.06 538.445 458.841 538.362 458.531 540.827C458.131 543.835 460.259 545.35 464.209 544.836C466.791 544.423 467.321 544.603 469.563 546.836C472.928 550.185 475.292 555.372 476.36 561.65C477.13 566.622 477.089 568.012 475.923 583.099C475.178 592.2 475.557 595.29 477.844 599.813C481.416 607.016 487.363 609.951 497.319 609.448C499.441 609.285 506.329 608.183 512.649 606.848C527.637 603.773 529.54 603.527 534.414 603.631C539.483 603.674 544.015 605.864 548.258 610.103C552.744 614.568 555.364 619.332 558.366 628.304C560.401 634.369 561.123 635.932 562.03 636.081C563.534 636.282 563.529 634.605 562.022 628.161C560.087 619.784 558.278 616.039 553.402 609.693C549.679 604.84 548.429 603.656 545.485 602.007C538.069 597.805 533.052 597.724 514.983 601.41C499.368 604.615 494.572 605.176 489.794 604.203C484.978 603.177 482.388 600.794 480.544 595.553C479.318 591.95 479.303 586.917 480.558 573.847C481.614 562.842 479.336 553.429 474.105 547.258C472.453 545.402 470.596 543.373 470.021 542.905C469.112 542.197 469.096 541.728 469.961 540.706C471.693 538.662 471.89 536.039 470.411 533.979C469.159 532.236 469.121 532.183 472.816 526.968C486.18 507.927 491.538 484.866 485.444 472.59C480.11 461.929 469.565 460.053 458.927 467.851C453.159 472.072 449.194 477.801 445.451 487.293C443.725 491.574 442.013 495.205 441.583 495.273C441.137 495.433 437.976 494.26 434.458 492.703C418.724 485.826 403.374 486.839 398.865 495.04ZM411.189 493.157C417.072 492.216 422.409 493.188 431.349 496.616C435.993 498.406 440.538 499.946 441.513 499.967C444.551 500.187 446.464 498.173 448.285 493.023C450.445 487.23 454.141 480.013 456.543 477.008C459.329 473.647 464.946 469.774 468.291 468.973C477.124 466.795 482.62 473.336 482.664 485.874C482.711 496.968 476.686 514.423 468.622 526.697C466.892 529.3 464.889 531.859 464.203 532.351C462.461 533.602 450.094 533.755 442.823 532.65C432.014 530.964 421.659 526.79 413.316 520.851C409.099 517.874 403.714 510.372 402.568 505.991C400.773 499.034 403.925 494.29 411.189 493.157Z" fill="url(#paint15_linear_35_578)"/>
<path d="M578.147 711.242C576.299 710.825 574.618 711.873 575.424 712.99C576.07 713.995 580.404 714.48 581.484 713.726C582.218 713.128 580.336 711.737 578.147 711.242Z" fill="url(#paint16_linear_35_578)"/>
<path d="M504.375 665.85C503.88 666.218 502.908 667.84 502.24 669.594C500.358 674.227 500.028 674.473 496.412 674.093C490.836 673.457 490.44 675.162 495.111 679.369L497.942 681.897L496.416 686.7C495.531 689.333 495.008 691.901 495.286 692.412C495.869 693.849 499.349 692.945 503.008 690.422L506.322 688.055L508.342 689.701C509.814 690.885 510.655 691.154 511.528 690.811C512.619 690.382 512.671 689.626 512.144 686.405C511.456 682.279 511.742 681.527 514.97 678.942C517.868 676.602 517.552 675.351 513.915 675.115C512.44 674.959 510.895 674.675 510.575 674.452C510.202 674.192 509.251 672.261 508.465 670.207C506.84 666.062 505.8 664.941 504.375 665.85ZM506.351 673.014L506.908 674.829L505.289 674.651C503.851 674.442 503.728 674.277 504.104 672.716C504.342 671.693 504.612 670.85 504.723 670.69C505.095 670.157 505.848 671.236 506.351 673.014ZM507.153 681.975C505.889 683.789 505.798 683.806 503.773 682.394C502.387 681.428 501.773 680.604 501.969 679.869C502.424 677.966 503.046 677.528 505.171 677.661C508.052 677.846 508.827 679.575 507.153 681.975ZM498.761 678.108C498.575 678.375 498.176 678.493 497.856 678.27C497.59 678.085 497.509 677.632 497.695 677.365C497.918 677.045 498.334 677.017 498.6 677.203C498.92 677.426 498.984 677.788 498.761 678.108ZM501.774 687.421C498.95 689.655 498.417 689.283 499.818 686.137C500.576 684.367 500.794 684.281 502.02 685.136C503.3 686.028 503.279 686.171 501.774 687.421Z" fill="url(#paint17_linear_35_578)"/>
<path d="M549.455 698.775C548.145 698.496 547.006 698.654 546.906 699.138C546.44 700.716 552.54 702.986 554.151 701.81C555.05 701.089 552.364 699.375 549.455 698.775Z" fill="url(#paint18_linear_35_578)"/>
<path d="M535.938 692.604C533.61 691.853 532.726 691.872 532.349 692.64C531.856 693.802 532.479 694.157 537.615 695.993C539.639 696.611 541.168 696.804 541.502 696.324C542.172 695.363 540.002 693.931 535.938 692.604Z" fill="url(#paint19_linear_35_578)"/>
<path d="M519.299 685.684C516.502 684.924 514.783 685.232 515.025 686.59C515.202 687.585 524.482 690.406 525.38 689.685C526.279 688.964 522.633 686.581 519.299 685.684Z" fill="url(#paint20_linear_35_578)"/>
<path d="M511.92 692.749C510.973 693.199 512.763 697.221 514.757 699.245C518.533 703.145 517.918 698.119 514.057 694C513.246 693.118 512.356 692.577 511.92 692.749Z" fill="url(#paint21_linear_35_578)"/>
<path d="M399.655 615.773C399.358 616.2 398.759 618.082 398.304 619.984C397.849 621.887 397.325 623.661 397.139 623.928C396.953 624.195 395.292 624.306 393.402 624.177C388.524 623.79 388.154 625.117 392.301 628.483L395.527 631.128L394.31 635.828C393.442 639.346 393.375 640.805 394.154 641.506C395.284 642.611 396.656 641.665 399.259 637.93L401.007 635.423L404.956 637.938C410.116 641.216 411.068 640.532 408.674 635.217C407.728 633.052 406.995 631.035 407.021 630.657C407.047 630.279 408.382 629.386 410.021 628.626C414.501 626.516 413.625 625.272 407.539 624.914L403.759 624.657L402.736 621.012C402.184 618.963 401.899 617.099 402.048 616.886C402.196 616.672 401.865 616.125 401.279 615.716C400.693 615.307 399.953 615.346 399.655 615.773ZM401.622 630.223C400.235 631.872 399.713 631.826 399.407 630.106C399.138 628.333 400.77 627.014 401.863 628.172C402.391 628.778 402.323 629.444 401.622 630.223ZM404.769 634.002C404.743 634.38 404.451 634.573 404.184 634.387C403.864 634.164 403.784 633.712 403.97 633.445C404.193 633.125 404.448 632.986 404.555 633.06C404.715 633.171 404.832 633.571 404.769 634.002Z" fill="url(#paint22_linear_35_578)"/>
<path d="M480.718 671.953C478.199 671.704 478.68 672.832 482.145 675.247C484.064 676.584 485.758 677.448 485.907 677.234C486.985 675.687 483.508 672.154 480.718 671.953Z" fill="url(#paint23_linear_35_578)"/>
<path d="M468.429 664.815C467.107 664.211 466.063 664.118 465.548 664.63C464.83 665.319 465.092 665.739 467.277 667.263C468.663 668.228 470.48 669.257 471.285 669.58C473.021 670.156 474.148 668.881 472.709 667.878C472.123 667.469 471.451 666.842 471.099 666.438C470.8 666.071 469.59 665.308 468.429 664.815Z" fill="url(#paint24_linear_35_578)"/>
<path d="M542.822 719.201L539.613 720.056L536.893 717.368C533.416 713.835 530.282 711.968 529.325 712.886C528.937 713.329 528.851 715.726 529.228 718.367L529.794 723.121L526.91 723.965C525.313 724.437 523.802 725.128 523.579 725.448C523.059 726.195 525.137 727.644 528.696 729.015L531.594 730.084L532.449 734.88C533.663 741.434 534.755 741.798 538.229 736.927L540.885 733.229L543.378 733.857C546.803 734.738 547.615 733.005 545.341 729.677C543.297 726.587 543.264 725.613 545.458 722.465C547.837 719.05 546.957 718.04 542.822 719.201ZM535.727 720.518C536.122 721.428 536.011 721.588 534.563 721.847C533.078 722.16 533.009 722.032 532.589 719.679L532.101 717.199L533.7 718.313C534.606 718.945 535.486 719.954 535.727 720.518ZM539.761 725.866C539.873 726.5 539.582 727.486 539.099 728.179C538.02 729.727 535.128 729.217 534.087 727.302C533.275 725.627 533.849 724.917 536.367 724.373C538.613 723.877 539.47 724.237 539.761 725.866ZM536.632 733.991C535.851 735.111 535.798 735.074 535.455 733.408C535.176 732.104 535.329 731.656 535.995 731.724C537.31 731.768 537.562 732.657 536.632 733.991Z" fill="url(#paint25_linear_35_578)"/>
<path d="M450.009 653.405C449.365 653.193 448.657 653.413 448.429 653.968C448.068 654.826 448.527 655.304 450.733 656.684C453.867 658.551 455.523 658.674 454.855 657.02C454.427 655.929 452.012 654.167 450.009 653.405Z" fill="url(#paint26_linear_35_578)"/>
<path d="M433.275 643.327C432.95 643.338 432.455 643.707 432.158 644.134C431.823 644.614 432.58 645.459 435.086 647.205C438.497 649.582 440.51 649.876 439.703 647.966C439.222 646.838 434.126 643.127 433.275 643.327Z" fill="url(#paint27_linear_35_578)"/>
<path d="M489.444 684.773C487.012 685.535 485.996 686.651 487.063 687.394C487.969 688.025 491.758 687.02 492.502 685.953C493.357 684.726 491.657 684.096 489.444 684.773Z" fill="url(#paint28_linear_35_578)"/>
<path d="M520.418 706.123C519.637 707.243 523.017 713.642 524.194 713.431C525.551 713.188 525.345 710.984 523.776 708.463C522.222 706.033 521.05 705.216 520.418 706.123Z" fill="url(#paint29_linear_35_578)"/>
<path d="M419.452 636.229C418.131 635.625 417.14 635.569 416.805 636.049C415.616 637.757 422.335 641.41 423.845 639.925C424.728 639.114 423.576 638.152 419.452 636.229Z" fill="url(#paint30_linear_35_578)"/>
<path d="M480.051 688.136C477.156 688.654 473.746 690.479 473.907 691.384C474.229 693.194 481.494 691.52 483.093 689.226C484.06 687.838 483.219 687.569 480.051 688.136Z" fill="url(#paint31_linear_35_578)"/>
<path d="M409.102 646.534C408.544 647.334 409.498 650.853 410.462 651.287C412.034 651.986 412.692 650.701 411.597 648.749C410.454 646.525 409.623 645.787 409.102 646.534Z" fill="url(#paint32_linear_35_578)"/>
<path d="M517.051 722.088C513.713 722.219 515.032 724.644 518.44 724.641C519.377 724.66 520.319 724.445 520.542 724.125C521.026 723.431 518.675 722.031 517.051 722.088Z" fill="url(#paint33_linear_35_578)"/>
<path d="M507.316 720.376C504.674 719.962 502.557 721.181 504.05 722.221C505.489 723.224 510.564 723.67 511.159 722.816C511.902 721.749 510.426 720.799 507.316 720.376Z" fill="url(#paint34_linear_35_578)"/>
<path d="M413.447 656.776C412.575 657.119 413.281 662.923 414.348 663.666C415.573 664.52 416.432 662.265 415.684 660.158C414.528 656.816 414.267 656.396 413.447 656.776Z" fill="url(#paint35_linear_35_578)"/>
<path d="M459.791 693.911C456.257 694.778 455.087 695.548 455.621 696.713C455.878 697.367 464.314 695.716 464.909 694.863C465.764 693.636 462.963 693.11 459.791 693.911Z" fill="url(#paint36_linear_35_578)"/>
<path d="M415.611 671.284C414.867 672.351 415.896 676.556 417.085 677.464C418.524 678.467 419.081 676.873 418.347 674.063C417.613 671.252 416.466 670.057 415.611 671.284Z" fill="url(#paint37_linear_35_578)"/>
<path d="M473.462 712.476C469.526 711.873 467.723 712.756 469.855 714.242C471.401 715.32 478.643 716.404 479.579 715.63C480.643 714.786 477.451 713.116 473.462 712.476Z" fill="url(#paint38_linear_35_578)"/>
<path d="M446.625 697.576C443.228 697.904 439.419 699.847 439.661 701.205C439.903 702.562 440.643 702.523 445.368 700.743C448.22 699.719 449.427 698.896 449.314 698.262C449.202 697.629 448.376 697.45 446.625 697.576Z" fill="url(#paint39_linear_35_578)"/>
<path d="M458.867 708.645C453.733 707.604 451.891 707.747 452.851 709.209C454.058 711.001 464.209 712.685 464.259 711.135C464.337 710.001 463.48 709.641 458.867 708.645Z" fill="url(#paint40_linear_35_578)"/>
<path d="M428.216 692.514L425.746 693.33L423.421 690.758C422.189 689.344 420.562 687.814 419.816 687.294C417.844 685.92 416.713 688.223 417.428 691.971L418.029 695.085L414.282 695.803C411.929 696.224 410.328 696.931 410.078 697.63C409.606 698.648 410.012 699.089 414.227 701.79L418.816 704.75L418.639 707.163C417.924 716.257 421.245 718.651 424.039 711.006L425.226 707.712L426.835 708.357C431.572 710.311 432.254 710.469 432.774 709.722C433.072 709.295 432.307 707.098 431.073 704.89C428.505 700.167 428.429 699.48 430.288 696.813C433.077 692.811 432.335 691.263 428.216 692.514ZM421.797 694.224C421.611 694.491 421.319 694.683 421.212 694.609C421.052 694.497 420.972 694.045 420.998 693.667C421.061 693.235 421.316 693.096 421.583 693.282C421.903 693.505 422.02 693.904 421.797 694.224ZM424.765 698.829C424.878 699.462 424.363 700.769 423.657 701.782L422.318 703.703L421.802 700.807C421.367 698.363 421.521 697.916 422.591 697.631C424.097 697.174 424.507 697.381 424.765 698.829ZM418.208 700.283C418.054 700.731 417.388 700.663 416.535 700.069C415.256 699.177 415.224 698.996 416.294 698.711C417.672 698.325 418.541 699.009 418.208 700.283Z" fill="url(#paint41_linear_35_578)"/>
<path d="M440.894 703.412C438.45 703.056 436.85 704.556 438.779 705.425C440.814 706.368 446.007 707.213 446.416 706.626C446.973 705.825 443.573 703.773 440.894 703.412Z" fill="url(#paint42_linear_35_578)"/>
<path d="M954.216 767.255C956.513 775.794 960.983 783.082 968.484 790.199C975.229 796.601 979.247 798.98 987.686 801.614C992.508 803.145 995.091 803.447 1002.63 803.253C1011.27 803.031 1011.91 803.106 1014.86 805.007C1026.23 812.485 1046.45 812.149 1066.7 804.226C1084.99 797.042 1109.8 780.726 1122.87 767.24C1127.34 762.619 1128.32 761.306 1128.11 760.392C1127.65 758.702 1126.7 759.325 1119.29 765.906C1102.05 781.431 1082.02 794.222 1064.55 800.925C1051.17 806.142 1037.51 807.965 1027.21 805.977C1023.09 805.117 1016.45 802.575 1016.38 801.795C1016.37 801.52 1018.32 800.228 1020.67 798.88C1025.7 795.946 1027.98 793.635 1030.08 789.535C1032.26 785.249 1031.97 781.026 1029.21 777.786C1026.37 774.549 1024.74 773.718 1021.1 773.581C1016.96 773.412 1013.28 775.299 1009.99 779.246C1005.62 784.508 1004.67 790.234 1007.16 795.825C1007.85 797.371 1008.17 798.926 1007.81 799.303C1006.91 800.246 996.796 800.138 991.986 799.066C977.974 796.07 964.889 784.728 958.147 769.821C956.777 766.729 955.33 764.192 955.007 764.154C953.805 763.909 953.599 764.788 954.216 767.255ZM1016.03 778.355C1018.8 776.767 1023.77 776.915 1025.65 778.706C1029.33 782.197 1028.73 787.179 1023.85 792.224C1019.83 796.465 1013.91 798.916 1012.03 797.126C1009.67 794.887 1008.8 789.852 1010.03 786.004C1011.35 782.154 1012.78 780.37 1016.03 778.355Z" fill="url(#paint43_linear_35_578)"/>
<path d="M1049.37 794.05C1050.6 795.214 1058.13 794.929 1064.12 793.533C1072.02 791.629 1078.05 788.393 1086.69 781.274C1090.65 778.046 1091.98 776.264 1091.04 775.369C1090.28 774.653 1088.19 775.626 1082.18 779.505C1071.47 786.355 1062.97 790.022 1054.31 791.303C1049.32 792.029 1048.05 792.797 1049.37 794.05Z" fill="url(#paint44_linear_35_578)"/>
<path d="M1138.47 710.928C1138.64 712.165 1140.72 715.928 1144.85 722.535L1147.74 727.242L1143.46 737.606C1138.54 749.503 1138.12 751.077 1139.39 752.285C1140.9 753.718 1143.63 752.544 1150.94 747.207C1154.77 744.396 1158.2 742.008 1158.66 741.905C1159.62 741.65 1163.53 745.366 1169.56 752.337C1175.2 758.859 1175.9 759.163 1178.72 756.194C1179.7 755.157 1184.8 746.198 1189.96 736.318C1195.21 726.435 1200.51 716.597 1201.83 714.357C1204.65 709.594 1205.23 707.097 1203.82 706.121C1203.21 705.723 1199.17 705.735 1194.67 706.127C1190.17 706.518 1180.11 706.823 1172.29 706.748C1148.43 706.58 1146.5 706.63 1143.61 706.934C1140.72 707.238 1138.29 709.14 1138.47 710.928ZM1155.47 710.491C1161.68 710.561 1170.79 710.603 1175.66 710.57C1180.53 710.536 1184.81 710.656 1185.14 710.786C1185.74 711 1182.47 712.372 1162.45 720.243C1153.62 723.689 1150.74 724.544 1150.31 723.866C1145.5 715.805 1143.22 711.404 1143.67 710.933C1143.94 710.65 1149.22 710.468 1155.47 710.491ZM1173.74 719.585C1191.32 713.248 1194.24 712.437 1191.32 714.857C1181.51 722.925 1164.4 734.814 1158.18 737.871C1155.96 738.985 1152.47 741.052 1150.4 742.577C1148.32 744.01 1146.29 745.303 1145.87 745.36C1145.46 745.417 1145.99 742.874 1147.11 739.811C1148.13 736.75 1149.36 732.902 1149.78 731.328L1150.57 728.503L1153.75 727.042C1155.57 726.259 1164.54 722.856 1173.74 719.585ZM1168.34 735.954C1172.36 733.414 1192.53 718.964 1193.78 717.644C1194.99 716.464 1193.65 719.579 1190.19 726.151C1188.18 729.881 1184.43 737.518 1181.82 743.102C1179.25 748.64 1176.89 753.39 1176.63 753.673C1176.13 754.191 1174.53 752.577 1165.95 742.913C1164.34 741.115 1163.23 739.442 1163.5 739.159C1163.73 738.924 1165.94 737.441 1168.34 735.954Z" fill="url(#paint45_linear_35_578)"/>
<path d="M511.242 797.02C510.402 797.372 506.946 800.23 503.495 803.437C500.045 806.645 496.339 809.748 495.225 810.286L493.176 811.285L488.454 800.02C483.782 788.875 483.707 788.695 481.79 788.16C477.846 786.995 474.874 789.157 464.411 800.869C460.697 804.962 457.417 808.239 457.162 808.135C456.907 808.031 456.737 799.719 456.854 789.736C456.946 779.694 456.909 770.692 456.747 769.632C456.171 766.07 452.261 763.975 448.902 765.383C446.563 766.363 443.234 770.366 431.827 785.714C425.48 794.292 419.378 802.275 418.199 803.332C414.075 807.456 413.61 804.833 415.563 786.614C417.928 763.995 417.931 757.442 415.459 759.112C414.3 759.88 413.571 763.356 411.377 778.647C408.155 800.568 408.68 808.379 413.476 810.737C417.115 812.522 421.204 808.484 435.116 789.69C449.226 770.531 450.484 769.158 451.363 771.255C451.615 771.854 451.677 778.732 451.501 786.555C451.061 808.72 451.494 813.118 454.408 814.855C456.676 816.229 459.399 814.313 466.991 805.847C476.306 795.602 478.793 793.291 479.899 793.743C480.495 793.987 481.625 796.683 483.431 802.337C487.802 815.792 490.273 818.491 496.09 816.052C499.989 814.418 502.51 812.022 508.439 804.465C513.315 798.265 514.18 795.788 511.242 797.02Z" fill="url(#paint46_linear_35_578)"/>
<path d="M978.343 458.543C976.871 464.932 978.838 476.075 982.16 480.291C986.867 486.322 987.305 486.603 990.579 487.16C996.963 488.169 1004.42 484.616 1008.98 478.589C1012.33 474.097 1013.14 469.828 1011.13 466.69C1010.41 465.53 1009.48 464.32 1009.05 464.039C1007.37 463.04 1002.1 462.824 998.018 463.525L993.722 464.319L991.907 459.681C990.488 455.992 989.635 454.672 987.938 453.583C985.092 451.757 983.432 451.695 981.387 453.317C979.217 455.013 979.097 455.321 978.343 458.543ZM985.186 457.993C985.788 458.38 986.799 460.417 987.395 462.498C989.506 469.565 990.292 470.147 997.212 468.875C1005.3 467.348 1007.51 467.996 1006.75 471.596C1005.78 476.228 1000.04 480.725 993.213 482.212L988.508 483.283L986.79 481.023C984.391 478.018 983.172 474.379 982.775 469.338C982.089 461.255 983.106 456.659 985.186 457.993Z" fill="url(#paint47_linear_35_578)"/>
<path d="M923.384 546.484C920.562 555.095 924.18 564.75 932.172 569.878L936.058 572.371L930.045 581.019C919.638 596.034 907.275 608.558 894.071 617.455C889.938 620.284 886.539 622.812 886.598 623.081C886.849 624.015 890.383 622.963 894.544 620.692C908.746 613.13 925.269 597.254 936.365 580.443L941.492 572.693L945.034 572.11C957.493 569.914 967.744 558.273 973.1 540.172C975.122 533.287 977.055 523.411 978.603 512.207C979.764 503.534 979.788 500.847 978.802 500.215C977.872 499.618 976.666 503.785 974.397 515.992C968.91 544.895 962.923 557.959 951.966 564.438C949.023 566.255 944.505 567.756 943.684 567.229C943.465 567.089 943.558 566.222 943.9 565.207C944.262 564.281 944.832 560.864 945.227 557.72C946.039 551.757 945.345 546.217 943.297 542.664C941.696 539.861 937.591 537.227 934.704 537.15C930.102 536.977 925.197 541.009 923.384 546.484ZM932.91 542.716C934.808 541.926 937.267 543.272 938.848 545.985C941.099 549.823 940.873 559.327 938.424 565.553C937.836 566.951 937.496 567.119 936.082 566.674C931.709 565.181 927.653 558.255 927.692 552.413C927.656 548.376 930.099 543.845 932.91 542.716Z" fill="url(#paint48_linear_35_578)"/>
<path d="M512.907 387.568C513.329 388.621 514.555 392.839 515.57 396.957C518.432 408.55 522.811 416.235 527.114 417.296C528.828 417.761 529.461 417.6 531.31 416.336C533.461 414.896 536.225 410.538 536.629 407.98C536.789 407.299 537.217 406.643 537.603 406.585C538.641 406.495 548.792 413.64 552.311 416.921C555.135 419.519 557.644 423.083 557.905 424.818C558.147 426.424 554.923 430.786 550.866 434.419C541.994 442.324 538.699 447.09 538.617 452.228C538.585 460.314 549.584 466.543 572.815 471.458C585.112 474.075 587.733 475.323 586.207 477.853C585.844 478.499 582.671 481.013 579.157 483.447C568.258 491 565.179 495.012 566.02 500.601C566.871 506.255 574.33 512.557 583.595 515.565C589.319 517.332 595.339 518.003 596.213 516.82C597.033 515.711 596.061 514.938 593.235 514.509C584.671 513.104 573.775 507.122 571.664 502.709C569.618 498.286 570.264 497.335 581.747 489.299C589.781 483.688 592.047 481.705 592.944 479.796C595.887 473.571 591.783 469.458 579.965 466.965C563.918 463.467 557.956 461.867 553.37 459.798C548.433 457.584 545.361 455.089 545.052 453.033C544.675 450.528 547.352 446.905 554.415 440.521C563.378 432.339 564.894 429.745 564.034 424.027C563.599 421.136 562.933 419.331 561.363 417.202C558.873 413.766 550.555 407.002 545.487 404.348L541.84 402.4L545.662 400.708C550.173 398.78 551.906 396.746 552.814 392.733C555.28 381.586 541.515 374.459 522.995 377.246C515.663 378.349 512.657 379.787 512.079 382.502C511.598 384.545 511.749 385.114 512.907 387.568ZM522.482 382.579C538.311 380.263 550.934 385.919 546.316 393.25C545.034 395.217 544.85 395.311 538.365 396.352C534.709 396.968 531.374 397.535 530.934 397.667C529.86 397.96 530.279 399.869 531.771 401.484C532.855 402.569 533.016 403.202 532.683 405.354C532.387 407.764 529.662 412.379 528.505 412.553C527.797 412.66 524.741 408.52 523.534 405.745C522.936 404.39 521.362 399.173 520.074 394.111C518.731 389.122 517.505 384.905 517.357 384.796C516.321 384.032 518.173 383.227 522.482 382.579Z" fill="url(#paint49_linear_35_578)"/>
<path d="M1006.75 645.369C1005.14 645.343 1002.52 646.17 999.724 647.701C997.324 648.975 995.186 650.045 995.051 650.1C994.917 650.156 994.075 647.957 993.201 645.299C991.447 639.893 989.394 637.502 985.784 636.601C983.16 635.955 978.853 637.637 976.718 640.09C971.899 645.724 972.609 658.069 978.34 667.714C982.187 674.08 982.254 673.707 973.611 684.031L966.2 692.841L966.072 686.953C965.843 676.924 960.398 666.753 955.244 666.835C953.22 666.884 951.359 668.627 950.881 671.056C950.287 673.816 950.858 680.779 951.909 683.332C952.973 686.069 957.114 692.691 959.578 695.699L961.233 697.657L957.816 700.89C950.029 708.252 934.377 717.82 919.178 724.593C911.304 727.998 909.979 728.828 910.861 729.595C912.772 731.259 930.489 724.265 942.887 716.951C950.771 712.347 960.381 705.365 962.772 702.618C964.608 700.509 966.131 700.541 970.568 702.766C978.96 706.88 990.742 706.704 997.532 702.269C1001.42 699.786 1001.68 694.93 997.959 693.07C994.232 691.118 985.469 690.992 975.959 692.714L972.683 693.311L975.836 689.59C977.538 687.536 980.416 683.834 982.227 681.358C985.422 676.896 985.556 676.841 989.43 675.557C995.559 673.563 1000.5 670.362 1005.49 665.223C1010.99 659.495 1012.66 656.2 1012.43 651.516C1012.23 647.291 1010.49 645.431 1006.75 645.369ZM1008.52 652.341C1008.6 656.114 1003.86 662.25 997.703 666.549C991.939 670.498 986.648 672.618 985.954 671.238C985.684 670.658 984.426 668.442 983.217 666.268C979.823 660.469 978.728 657.274 978.339 652.279C977.918 646.825 979.188 643.189 982.175 641.737C986.359 639.602 988.904 643.111 989.343 651.512C989.825 659.864 991.447 660.672 996.321 655.172C998.2 653.014 1002.22 650.476 1005.02 649.728C1007.01 649.129 1008.51 650.176 1008.52 652.341ZM994.383 699.355C992.143 700.94 980.575 701.561 976.023 700.358C973.913 699.814 972.212 699.195 972.193 698.92C972.086 697.361 986.83 695.366 992.414 696.175C996.231 696.738 996.801 697.666 994.383 699.355ZM959.982 678.116C960.805 680.04 961.601 683.578 961.759 685.871L962.091 690.041L960.5 689C957.26 686.783 954.364 678.83 955.253 674.345L955.695 672.056L957.067 673.251C957.851 673.933 959.152 676.1 959.982 678.116Z" fill="url(#paint50_linear_35_578)"/>
<path d="M1036.3 559.28C1035.39 559.995 1033.64 562.271 1032.47 564.287L1030.33 567.994L1023.31 568.514C1015.12 569.164 1013.43 569.685 1012.46 571.831C1011.29 574.367 1012.2 576.123 1017.01 581C1019.54 583.472 1021.62 585.943 1021.62 586.398C1021.62 586.853 1020.84 589.845 1019.93 592.966C1018.96 596.153 1018.37 599.275 1018.63 599.86C1019.22 601.486 1021.62 600.835 1027.79 597.324C1030.65 595.698 1033.31 594.332 1033.64 594.332C1034.03 594.332 1036.04 595.243 1038.19 596.283C1042.74 598.494 1044.94 598.689 1047.02 596.998C1048.32 595.958 1048.58 595.047 1048.78 590.885L1049.04 585.943L1053.07 583.407C1058.26 579.96 1060.47 577.944 1060.99 575.798C1061.77 572.546 1057.74 570.335 1051.05 570.27C1047.09 570.27 1045.14 569.295 1044.62 567.213C1043.91 564.287 1042.02 560.19 1040.79 559.019C1039.36 557.589 1038.38 557.654 1036.3 559.28ZM1038.51 568.059C1038.51 568.579 1038.06 568.969 1037.54 568.969C1036.43 568.969 1036.37 568.839 1036.95 567.409C1037.41 566.238 1038.51 566.628 1038.51 568.059ZM1026.82 575.147C1026.82 575.993 1025.26 579.375 1024.87 579.375C1024.09 579.375 1020.32 576.123 1020.32 575.473C1020.32 575.147 1020.97 574.822 1021.81 574.692C1023.18 574.497 1026.82 574.822 1026.82 575.147ZM1038.71 575.408C1040.4 576.058 1040.72 576.773 1041.44 580.675C1041.83 582.886 1041.76 583.016 1038.32 584.902L1034.74 586.788L1032.15 585.032L1029.48 583.277L1030.46 580.48C1032.21 575.408 1034.68 573.912 1038.71 575.408ZM1051.77 577.033C1051.38 578.074 1048.39 579.505 1047.61 579.049C1047.35 578.919 1046.96 578.139 1046.76 577.424C1046.44 576.253 1046.76 576.123 1049.3 576.123C1051.38 576.123 1052.03 576.318 1051.77 577.033ZM1027.47 590.04C1027.47 590.235 1027.21 590.56 1026.82 590.755C1026.49 590.95 1026.17 590.82 1026.17 590.495C1026.17 590.105 1026.49 589.78 1026.82 589.78C1027.21 589.78 1027.47 589.91 1027.47 590.04Z" fill="url(#paint51_linear_35_578)"/>
<path d="M335.028 718.616C334.99 719.773 335.602 722.58 336.392 724.773L337.849 728.8L333.73 734.505C328.958 741.188 328.269 742.816 329.284 744.943C330.472 747.471 332.402 747.905 339.229 747.365C342.751 747.017 345.981 747.016 346.329 747.309C346.678 747.602 348.465 750.125 350.268 752.83C352.08 755.627 354.092 758.084 354.707 758.262C356.328 758.861 357.378 756.603 358.663 749.618C359.259 746.384 359.929 743.467 360.138 743.218C360.389 742.92 362.382 741.964 364.559 740.993C369.178 738.936 370.75 737.371 370.794 734.692C370.834 733.027 370.305 732.242 367.245 729.414L363.63 726.034L364.282 721.318C364.99 715.122 364.869 712.134 363.561 710.355C361.575 707.665 357.29 709.324 352.932 714.404C350.381 717.437 348.38 718.301 346.453 717.359C343.753 716.022 339.405 714.827 337.714 715.018C335.699 715.191 335.122 715.978 335.028 718.616ZM343.168 722.577C343.567 722.912 343.572 723.511 343.238 723.909C342.527 724.754 342.386 724.72 341.667 723.351C341.064 722.25 342.074 721.656 343.168 722.577ZM341.065 736.09C341.712 736.634 343.296 740.004 343.045 740.302C342.543 740.899 337.629 741.69 337.132 741.271C336.883 741.062 337.052 740.355 337.496 739.625C338.225 738.455 340.816 735.88 341.065 736.09ZM348.918 727.158C350.503 726.284 351.259 726.496 354.705 728.46C356.648 729.585 356.706 729.719 355.933 733.568L355.076 737.517L352.059 738.375L349.001 739.284L347.488 736.738C344.735 732.13 345.18 729.278 348.918 727.158ZM358.568 718.21C359.114 719.179 358.285 722.387 357.434 722.69C357.168 722.806 356.319 722.602 355.646 722.29C354.542 721.785 354.651 721.453 356.282 719.514C357.62 717.923 358.188 717.551 358.568 718.21ZM352.88 745.179C353.029 745.304 353.111 745.712 353.009 746.136C352.95 746.51 352.641 746.675 352.392 746.466C352.094 746.215 352.054 745.757 352.263 745.508C352.514 745.21 352.781 745.095 352.88 745.179Z" fill="url(#paint52_linear_35_578)"/>
<path d="M420.624 394.791C420.585 395.948 421.198 398.756 421.988 400.948L423.445 404.975L419.326 410.68C414.554 417.363 413.865 418.991 414.88 421.118C416.068 423.646 417.997 424.08 424.825 423.54C428.347 423.192 431.577 423.192 431.925 423.485C432.273 423.778 434.061 426.3 435.864 429.005C437.675 431.802 439.688 434.259 440.303 434.437C441.924 435.036 442.973 432.778 444.259 425.794C444.855 422.559 445.525 419.642 445.734 419.393C445.985 419.095 447.978 418.14 450.154 417.169C454.774 415.111 456.345 413.546 456.39 410.867C456.43 409.203 455.9 408.418 452.841 405.589L449.226 402.209L449.878 397.494C450.586 391.297 450.465 388.309 449.157 386.53C447.171 383.84 442.885 385.5 438.528 390.579C435.977 393.612 433.976 394.476 432.048 393.534C429.349 392.197 425.001 391.002 423.31 391.193C421.295 391.366 420.718 392.154 420.624 394.791ZM428.764 398.752C429.162 399.087 429.168 399.686 428.834 400.084C428.123 400.929 427.981 400.895 427.263 399.527C426.66 398.425 427.669 397.831 428.764 398.752ZM426.661 412.265C427.308 412.809 428.892 416.179 428.641 416.477C428.139 417.074 423.225 417.865 422.727 417.446C422.479 417.237 422.648 416.53 423.092 415.8C423.821 414.631 426.412 412.056 426.661 412.265ZM434.513 403.333C436.098 402.459 436.855 402.671 440.301 404.636C442.244 405.761 442.302 405.894 441.529 409.743L440.672 413.692L437.655 414.551L434.597 415.459L433.084 412.913C430.331 408.305 430.776 405.453 434.513 403.333ZM444.164 394.386C444.709 395.354 443.88 398.562 443.03 398.866C442.763 398.981 441.915 398.777 441.242 398.466C440.137 397.961 440.247 397.628 441.878 395.689C443.216 394.098 443.784 393.726 444.164 394.386ZM438.476 421.354C438.625 421.479 438.707 421.888 438.605 422.312C438.545 422.686 438.237 422.851 437.988 422.641C437.689 422.39 437.649 421.932 437.859 421.684C438.11 421.385 438.376 421.27 438.476 421.354Z" fill="url(#paint53_linear_35_578)"/>
<path d="M283.256 762.969C281.895 763.088 279.562 763.956 278.052 764.852C275.743 766.215 275.077 767.077 273.558 770.606C272.024 773.99 271.814 775.3 272.029 778.64L272.345 782.643L267.381 783.504C261.049 784.691 253.087 784.855 244.932 784.046C239.645 783.539 237.034 782.916 230.251 780.466C225.744 778.792 221.427 776.981 220.642 776.481C219.88 775.921 218.761 775.574 218.16 775.698C217.165 775.953 217.119 776.075 217.707 776.917C219.395 779.279 223.188 781.381 230.642 784.08C237.28 786.546 239.685 787.162 245.832 787.78C254.026 788.672 261.805 788.44 269.209 787.166C274.295 786.35 274.295 786.35 275.326 788.051C277.038 790.907 282.537 796.626 286.546 799.641C293.818 805.256 301.767 808.486 317.855 812.38L321.037 813.146L321.686 816.994C323.472 827.301 334.381 838.983 346.379 843.44C354.967 846.63 367.351 847.622 380.048 846.094C387.149 845.263 391.671 844.098 392.078 843.001C392.441 842.025 391.026 841.916 381.984 842.373C365.757 843.145 358.484 842.386 349.348 838.993C339.116 835.192 332.087 829.113 328.222 820.67C325.008 813.649 325.205 813.306 332.156 813.252C349.184 813.125 362.355 804.905 360.2 795.78C358.837 789.932 353.179 787.067 344.457 787.782C338.542 788.221 331.903 791.167 327.822 795.062C325.486 797.247 324.313 799.1 322.597 802.972L320.33 807.957L315.939 807.09C313.55 806.619 308.442 805.068 304.544 803.621C293.825 799.639 286.228 794.528 281.228 788.023L279.006 785.047L283.001 783.062C287.581 780.809 291.934 776.738 293.067 773.689C294.063 771.007 293.314 767.052 291.538 765.49C289.563 763.716 286 762.671 283.256 762.969ZM289.392 770.521C289.393 773.504 285.723 777.414 280.983 779.538C277.77 780.911 277.206 780.563 276.786 777.216C276.335 773.58 278.764 769.279 281.932 768.027C285.411 766.684 289.354 768.009 289.392 770.521ZM355.226 795.736C355.784 796.845 356.047 798.192 355.843 798.74C354.507 802.337 346.914 806.732 340.255 807.866C336.614 808.525 327.846 808.807 326.628 808.354C326.263 808.219 326.608 806.543 327.332 804.592C329.755 798.069 336.89 793.227 345.307 792.399C350.835 791.885 353.986 792.917 355.226 795.736Z" fill="url(#paint54_linear_35_578)"/>
<path d="M1165.23 490.051C1155.04 485.983 1139.93 487.484 1128.82 493.647C1124.9 495.868 1123.99 495.972 1120.35 494.191C1115.62 491.934 1105.48 490.208 1101.24 491.029C1097.29 491.767 1095.05 496.019 1096.66 499.719C1098 502.786 1105.06 510.734 1110.35 515.261C1112.71 517.177 1113.63 519.032 1113.93 523.106C1116.56 550.451 1140.95 568.268 1166.37 561.382C1174.68 559.159 1174.83 559.117 1183.08 562.482C1196.7 567.844 1205.58 566.793 1206.17 559.795C1206.5 555.462 1201.81 549.193 1195.33 545.474C1190.35 542.585 1189.99 542.139 1190.76 539.641C1195.35 524.358 1190 506.738 1178.02 497.767C1175.99 496.151 1173.49 494.276 1172.52 493.613C1171.6 492.857 1168.32 491.283 1165.23 490.051ZM1178.13 505.273C1182.82 510.443 1186.95 522.994 1186.43 530.521C1186.14 533.9 1185 538.151 1183.66 540.577C1180.86 545.617 1176.15 550.575 1174 550.721C1171.89 550.774 1154.3 540.272 1139.55 530.131C1118.98 515.775 1119.15 516.117 1123.87 507.624C1130.29 496.052 1143.84 489.897 1156.08 492.907C1163.4 494.655 1173.79 500.548 1178.13 505.273ZM1118.79 505.781C1115.89 511.008 1115.49 511.277 1113.63 510.242C1111.11 508.844 1104.89 502.461 1102.83 499.363C1102.12 498.233 1101.98 496.938 1102.67 496.585C1104.63 495.475 1115.74 496.764 1118.92 498.525L1121.9 500.182L1118.79 505.781ZM1198.15 555.342C1199.6 557.124 1200.29 558.969 1199.74 559.519C1198 561.116 1192.44 560.352 1186.21 557.504L1180.4 555.009L1182.46 552.614C1187.23 547.324 1187.09 547.366 1191.47 549.799C1193.8 551.094 1196.79 553.611 1198.15 555.342ZM1146.56 541.468C1157.1 548.418 1165.86 554.385 1165.99 554.82C1166.41 556.033 1159.65 556.793 1152.93 556.361C1143.55 555.672 1133.25 549.831 1127.39 541.935C1123.51 536.609 1119.46 526.545 1120.5 524.678C1120.76 524.212 1122.39 524.999 1124.2 526.366C1125.91 527.682 1136.02 534.518 1146.56 541.468Z" fill="url(#paint55_linear_35_578)"/>
<path d="M357.655 558.827C354.926 559.998 351.612 563.965 351.158 566.631C349.858 573.264 356.745 580.158 366.296 581.979C370.909 582.824 373.963 582.174 376.562 579.703C378.446 577.882 378.771 577.166 378.771 574.565C378.771 568.842 374.807 564.485 369.09 563.9C362.593 563.314 359.864 566.826 362.593 572.419C364.997 577.361 367.79 577.231 366.426 572.289C366.036 570.793 365.906 569.297 366.101 568.972C367.271 567.086 373.118 569.688 374.223 572.614C375.132 574.89 375.067 575.28 373.573 576.776C369.739 580.613 356.875 575.801 355.121 569.818C354.471 567.737 356.29 563.965 358.759 562.469C360.514 561.363 361.878 561.168 366.621 561.233C369.739 561.298 372.468 561.168 372.663 560.973C374.937 558.697 362.073 556.876 357.655 558.827Z" fill="url(#paint56_linear_35_578)"/>
<path d="M960.655 589.827C957.926 590.998 954.612 594.965 954.158 597.631C952.858 604.264 959.745 611.158 969.296 612.979C973.909 613.824 976.963 613.174 979.562 610.703C981.446 608.882 981.771 608.166 981.771 605.565C981.771 599.842 977.807 595.485 972.09 594.9C965.593 594.314 962.864 597.826 965.593 603.419C967.997 608.361 970.79 608.231 969.426 603.289C969.036 601.793 968.906 600.297 969.101 599.972C970.271 598.086 976.118 600.688 977.223 603.614C978.132 605.89 978.067 606.28 976.573 607.776C972.739 611.613 959.875 606.801 958.121 600.818C957.471 598.737 959.29 594.965 961.759 593.469C963.514 592.363 964.878 592.168 969.621 592.233C972.739 592.298 975.468 592.168 975.663 591.973C977.937 589.697 965.073 587.876 960.655 589.827Z" fill="url(#paint57_linear_35_578)"/>
<path d="M1062.65 718.827C1059.93 719.998 1056.61 723.965 1056.16 726.631C1054.86 733.264 1061.75 740.158 1071.3 741.979C1075.91 742.824 1078.96 742.174 1081.56 739.703C1083.45 737.882 1083.77 737.166 1083.77 734.565C1083.77 728.842 1079.81 724.485 1074.09 723.9C1067.59 723.314 1064.86 726.826 1067.59 732.419C1070 737.361 1072.79 737.231 1071.43 732.289C1071.04 730.793 1070.91 729.297 1071.1 728.972C1072.27 727.086 1078.12 729.688 1079.22 732.614C1080.13 734.89 1080.07 735.28 1078.57 736.776C1074.74 740.613 1061.88 735.801 1060.12 729.818C1059.47 727.737 1061.29 723.965 1063.76 722.469C1065.51 721.363 1066.88 721.168 1071.62 721.233C1074.74 721.298 1077.47 721.168 1077.66 720.973C1079.94 718.697 1067.07 716.876 1062.65 718.827Z" fill="url(#paint58_linear_35_578)"/>
<path d="M250.2 664.427C252.773 665.529 253.096 664.012 250.983 660.704C248.227 656.385 248.138 650.134 250.806 645.352C252.876 641.536 252.187 640.02 249.107 641.722C245.521 643.838 243.451 648.297 243.724 653.353C244.089 658.777 246.477 662.82 250.2 664.427Z" fill="url(#paint59_linear_35_578)"/>
<path d="M272.305 671.817C277.268 674.205 281.128 675.03 286.828 674.936C293.355 674.841 299.055 673.643 304.893 671.112C307.468 670.008 309.72 669.042 309.904 669.042C310.042 668.996 310.271 670.696 310.408 672.856C310.819 678.969 314.539 684.529 318.859 685.446C323.685 686.409 331.04 684.108 338.489 679.324C341.017 677.714 343.73 676.288 344.419 676.242C345.155 676.149 350.486 676.882 356.231 677.845C367.124 679.632 371.122 679.768 372.64 678.251C373.744 677.147 372.779 676.182 369.332 675.035C367.861 674.576 364.691 672.693 362.302 670.856C360.004 669.018 355.915 666.216 353.25 664.563C344.565 659.189 343.049 658.041 342.912 656.708C342.866 656.018 343.281 653.031 343.88 650.043C345.631 641.125 344.117 634.277 339.477 629.545C335.618 625.686 329.459 624.77 322.38 627.071L320.035 627.762L320.359 624.59C321.051 618.752 320.549 610.617 319.31 606.986C317.703 602.345 314.258 598.624 310.719 597.66C306.629 596.605 301.158 598.768 295.87 603.596L291.501 607.505L290.353 605.805C280.11 590.872 268.026 582.926 256.397 583.529C252.49 583.76 247.433 585.693 245.317 587.808C243.34 589.786 241.269 594.889 241.084 598.474C240.436 607.851 247.648 616.994 262.582 625.766C265.798 627.695 268.601 629.578 268.785 630.038C269.015 630.451 267.635 632.474 265.105 635.371C258.759 642.636 257.287 646.222 258.203 652.749C259.256 660.516 265.09 668.465 272.305 671.817ZM262.659 656.837C259.675 649.439 260.918 644.98 268 636.887C274.623 629.346 274.439 628.886 263.503 622.272C258.816 619.425 256.105 617.358 252.246 613.499C247.652 608.996 247.009 608.077 245.769 604.631C241.408 592.728 251.432 584.082 264.3 588.765C271.883 591.473 278.453 596.94 285.251 606.129C288.742 610.816 289.339 611.413 290.902 611.78C292.924 612.147 292.556 612.423 298.12 607.042C310.72 594.81 319.036 602.574 316.452 624.27C315.99 628.223 315.943 631.762 316.264 632.084C317.137 632.957 318.7 632.68 321.734 631.208C327.159 628.632 333.686 628.996 336.856 632.166C340.439 635.75 341.539 643.563 339.604 652.297C338.729 656.112 339.188 658.686 341.025 660.524C341.577 661.075 345.436 663.739 349.572 666.403C359.864 673.109 361.748 674.441 361.196 674.993C360.921 675.269 357.152 674.811 352.786 673.94C348.42 673.16 344.145 672.657 343.318 672.841C342.444 673.071 340.054 674.359 337.985 675.693C330.582 680.523 322.951 683.1 319.183 681.999C315.552 680.852 312.751 674.004 313.857 668.764C314.548 665.776 313.813 663.846 312.113 663.893C311.423 663.939 308.987 664.997 306.642 666.147C295.056 672.22 281.543 672.778 272.169 667.634C268.63 665.66 264.128 660.606 262.659 656.837Z" fill="url(#paint60_linear_35_578)"/>
<path d="M292.522 685.413C293.625 685.32 296.245 684.905 298.314 684.399L302.129 683.524L303.691 686.648C305.298 690.003 307.044 691.473 308.055 690.461C308.377 690.14 308.424 689.174 308.148 688.255C307.873 687.428 307.277 684.9 306.91 682.694C305.764 677.041 304.936 676.858 296.431 680.585C292.616 682.195 289.535 683.713 289.535 683.989C289.535 685 290.684 685.505 292.522 685.413Z" fill="url(#paint61_linear_35_578)"/>
<path d="M347.769 688.237C352.457 688.051 358.479 687.266 359.95 686.622C361.559 685.84 360.962 684.599 358.894 684.462C356.09 684.326 344.323 685.894 343.771 686.446C342.575 687.642 344.229 688.376 347.769 688.237Z" fill="url(#paint62_linear_35_578)"/>
<path d="M362.258 664.375C368.692 667.405 371.404 667.726 370.118 665.244C369.521 664.096 360.146 659.412 358.032 659.229C354.861 658.909 357.387 661.987 362.258 664.375Z" fill="url(#paint63_linear_35_578)"/>
<path d="M299.736 592.747C300.195 592.839 301.804 592.516 303.367 592.056C306.907 590.905 309.527 590.95 313.295 592.419C317.293 593.934 321.566 598.115 323.448 602.48C324.78 605.467 324.918 605.697 325.929 605.237C327.4 604.593 326.897 600.043 325.014 596.688C322.075 591.45 314.585 586.811 309.207 586.951C305.806 587.045 301.53 588.564 299.645 590.449C298.173 591.921 298.173 592.472 299.736 592.747Z" fill="url(#paint64_linear_35_578)"/>
<path d="M665.45 154.416C662.41 155.947 658.844 159.744 657.696 162.761C655.854 167.617 654.989 175.715 655.99 179.889C656.884 183.621 656.566 183.964 653.038 183.74C646.139 183.388 639.995 186.466 638.913 190.872C638.094 194.144 639.486 198.558 642.539 202.374C645.39 205.904 651.308 209.969 654.799 210.871C657.283 211.479 657.437 211.843 655.918 214.147C654.063 216.999 654.328 218.942 657.164 222.408C660.904 226.862 665.999 229.719 673.922 231.833C685.099 234.703 695.678 234.24 699.227 230.648C700.483 229.477 703.576 222.316 704.413 218.838C704.446 218.696 705.72 218.993 707.276 219.355C709.336 219.865 710.724 219.8 712.685 219.062C722.412 215.325 735.082 195.435 736.313 181.899C736.733 177.518 734.916 169.661 732.876 167.007C729.467 162.541 723.367 161.061 719.166 163.606C716.361 165.282 713.975 167.593 711.309 171.241C710.144 172.791 709.044 174.058 708.792 174.119C708.539 174.179 707.639 172.656 706.712 170.739C703.7 164.305 698.655 161.101 693.351 162.105C690.492 162.723 690.336 162.627 688.281 159.91C686.133 157.081 681.48 154.117 677.849 153.182C676.151 152.787 668.68 152.839 667.715 153.271C667.54 153.38 666.512 153.827 665.45 154.416ZM674.457 158.543C678.235 158.974 681.67 160.759 684.119 163.449L686.239 165.883L684.629 169.479C682.599 174.112 682.129 177.167 682.715 181.842C683.203 185.269 683.041 185.709 681.194 187.757C677.946 191.211 676.452 200.864 678.011 207.646C678.315 208.911 678.398 210.095 678.254 210.33C678.125 210.628 676.063 210.387 673.672 209.89C671.281 209.394 667.738 209.106 665.752 209.181C659.287 209.527 652.087 205.97 647.116 200.006C644.498 196.889 643.533 193.977 644.42 191.825C645.37 189.658 650.675 188.654 655.929 189.668C660.286 190.563 662.763 190.303 663.248 188.983C663.41 188.543 662.965 185.573 662.255 182.333C660.236 172.518 661.763 164.395 666.335 160.891C669.082 158.694 670.899 158.192 674.457 158.543ZM696.206 166.77C699.257 167.51 701.87 171.164 703.656 177.222C706.269 185.892 708.003 185.877 713.871 176.913C718.668 169.611 721.845 166.977 725.118 167.53C727.824 167.951 729.55 170.413 730.779 175.535C731.916 180.278 731.008 186.247 728.092 193.032C724.288 201.969 714.944 213.438 710.585 214.483C708.563 214.968 705.068 214.602 704.901 213.906C704.919 213.701 704.843 211.713 704.848 209.505C704.881 204.348 703.047 196.696 700.891 192.999C698.379 188.653 694.702 185.856 690.203 184.928C686.476 184.15 686.319 184.054 686.228 182.003C686.067 177.427 687.755 172.207 690.462 169.284C693.376 166.111 693.502 166.081 696.206 166.77ZM692.708 191.751C695.447 193.702 697.618 197.462 698.816 202.458C700.526 209.872 699.313 221.532 696.073 227.525L694.501 230.443L689.507 230.236C679.456 229.837 669.057 226.311 663.194 221.364C660.004 218.651 659.661 216.66 662.132 215.265C664.842 213.746 667.867 213.823 674.738 215.453C681.248 216.968 682.982 216.954 683.801 215.353C684.059 214.757 683.869 211.458 683.415 207.889C682.447 200.23 682.71 195.753 684.3 192.63C685.28 190.589 685.74 190.278 687.775 190.125C689.4 189.936 690.939 190.503 692.708 191.751Z" fill="url(#paint65_linear_35_578)"/>
<defs>
<linearGradient id="paint0_linear_35_578" x1="827.928" y1="190.579" x2="820.99" y2="345.193" gradientUnits="userSpaceOnUse">
<stop stop-color="#42307D"/>
<stop offset="1" stop-color="#7F56D9"/>
</linearGradient>
<linearGradient id="paint1_linear_35_578" x1="842.152" y1="309.072" x2="850.142" y2="327.021" gradientUnits="userSpaceOnUse">
<stop stop-color="#42307D"/>
<stop offset="1" stop-color="#7F56D9"/>
</linearGradient>
<linearGradient id="paint2_linear_35_578" x1="870.921" y1="330.367" x2="879.081" y2="344.848" gradientUnits="userSpaceOnUse">
<stop stop-color="#42307D"/>
<stop offset="1" stop-color="#7F56D9"/>
</linearGradient>
<linearGradient id="paint3_linear_35_578" x1="802.535" y1="291.946" x2="808.936" y2="306.55" gradientUnits="userSpaceOnUse">
<stop stop-color="#42307D"/>
<stop offset="1" stop-color="#7F56D9"/>
</linearGradient>
<linearGradient id="paint4_linear_35_578" x1="832.439" y1="336.446" x2="839.727" y2="355.171" gradientUnits="userSpaceOnUse">
<stop stop-color="#42307D"/>
<stop offset="1" stop-color="#7F56D9"/>
</linearGradient>
<linearGradient id="paint5_linear_35_578" x1="797.373" y1="319.216" x2="802.224" y2="330.369" gradientUnits="userSpaceOnUse">
<stop stop-color="#42307D"/>
<stop offset="1" stop-color="#7F56D9"/>
</linearGradient>
<linearGradient id="paint6_linear_35_578" x1="502.675" y1="269" x2="569.038" y2="389.495" gradientUnits="userSpaceOnUse">
<stop stop-color="#42307D"/>
<stop offset="1" stop-color="#7F56D9"/>
</linearGradient>
<linearGradient id="paint7_linear_35_578" x1="524.744" y1="291.207" x2="593.968" y2="403.947" gradientUnits="userSpaceOnUse">
<stop stop-color="#42307D"/>
<stop offset="1" stop-color="#7F56D9"/>
</linearGradient>
<linearGradient id="paint8_linear_35_578" x1="493" y1="322.229" x2="516.215" y2="335.761" gradientUnits="userSpaceOnUse">
<stop stop-color="#42307D"/>
<stop offset="1" stop-color="#7F56D9"/>
</linearGradient>
<linearGradient id="paint9_linear_35_578" x1="661.934" y1="336.626" x2="677.779" y2="342.609" gradientUnits="userSpaceOnUse">
<stop stop-color="#42307D"/>
<stop offset="1" stop-color="#7F56D9"/>
</linearGradient>
<linearGradient id="paint10_linear_35_578" x1="819.998" y1="406.737" x2="964.899" y2="537.902" gradientUnits="userSpaceOnUse">
<stop stop-color="#42307D"/>
<stop offset="1" stop-color="#7F56D9"/>
</linearGradient>
<linearGradient id="paint11_linear_35_578" x1="859.059" y1="432.085" x2="884.404" y2="436.457" gradientUnits="userSpaceOnUse">
<stop stop-color="#42307D"/>
<stop offset="1" stop-color="#7F56D9"/>
</linearGradient>
<linearGradient id="paint12_linear_35_578" x1="915.873" y1="457.35" x2="965.824" y2="489.621" gradientUnits="userSpaceOnUse">
<stop stop-color="#42307D"/>
<stop offset="1" stop-color="#7F56D9"/>
</linearGradient>
<linearGradient id="paint13_linear_35_578" x1="844.085" y1="506.729" x2="852.067" y2="513.514" gradientUnits="userSpaceOnUse">
<stop stop-color="#42307D"/>
<stop offset="1" stop-color="#7F56D9"/>
</linearGradient>
<linearGradient id="paint14_linear_35_578" x1="889.262" y1="517.579" x2="895.513" y2="528.158" gradientUnits="userSpaceOnUse">
<stop stop-color="#42307D"/>
<stop offset="1" stop-color="#7F56D9"/>
</linearGradient>
<linearGradient id="paint15_linear_35_578" x1="390.442" y1="499.822" x2="557.556" y2="464.848" gradientUnits="userSpaceOnUse">
<stop stop-color="#42307D"/>
<stop offset="1" stop-color="#7F56D9"/>
</linearGradient>
<linearGradient id="paint16_linear_35_578" x1="576.943" y1="709.677" x2="576.528" y2="715.918" gradientUnits="userSpaceOnUse">
<stop stop-color="#42307D"/>
<stop offset="1" stop-color="#7F56D9"/>
</linearGradient>
<linearGradient id="paint17_linear_35_578" x1="500.741" y1="662.158" x2="509.16" y2="698.984" gradientUnits="userSpaceOnUse">
<stop stop-color="#42307D"/>
<stop offset="1" stop-color="#7F56D9"/>
</linearGradient>
<linearGradient id="paint18_linear_35_578" x1="548.433" y1="696.898" x2="547.274" y2="702.888" gradientUnits="userSpaceOnUse">
<stop stop-color="#42307D"/>
<stop offset="1" stop-color="#7F56D9"/>
</linearGradient>
<linearGradient id="paint19_linear_35_578" x1="534.081" y1="690.129" x2="532.482" y2="697.218" gradientUnits="userSpaceOnUse">
<stop stop-color="#42307D"/>
<stop offset="1" stop-color="#7F56D9"/>
</linearGradient>
<linearGradient id="paint20_linear_35_578" x1="517.122" y1="683.002" x2="515.34" y2="690.692" gradientUnits="userSpaceOnUse">
<stop stop-color="#42307D"/>
<stop offset="1" stop-color="#7F56D9"/>
</linearGradient>
<linearGradient id="paint21_linear_35_578" x1="512.081" y1="692.433" x2="510.877" y2="699.968" gradientUnits="userSpaceOnUse">
<stop stop-color="#42307D"/>
<stop offset="1" stop-color="#7F56D9"/>
</linearGradient>
<linearGradient id="paint22_linear_35_578" x1="397.615" y1="613.162" x2="403.967" y2="648.224" gradientUnits="userSpaceOnUse">
<stop stop-color="#42307D"/>
<stop offset="1" stop-color="#7F56D9"/>
</linearGradient>
<linearGradient id="paint23_linear_35_578" x1="480.192" y1="670.732" x2="478.683" y2="675.442" gradientUnits="userSpaceOnUse">
<stop stop-color="#42307D"/>
<stop offset="1" stop-color="#7F56D9"/>
</linearGradient>
<linearGradient id="paint24_linear_35_578" x1="466.519" y1="663.167" x2="464.906" y2="668.494" gradientUnits="userSpaceOnUse">
<stop stop-color="#42307D"/>
<stop offset="1" stop-color="#7F56D9"/>
</linearGradient>
<linearGradient id="paint25_linear_35_578" x1="532.058" y1="708.96" x2="537.198" y2="743.936" gradientUnits="userSpaceOnUse">
<stop stop-color="#42307D"/>
<stop offset="1" stop-color="#7F56D9"/>
</linearGradient>
<linearGradient id="paint26_linear_35_578" x1="449.39" y1="652.55" x2="448.036" y2="657.397" gradientUnits="userSpaceOnUse">
<stop stop-color="#42307D"/>
<stop offset="1" stop-color="#7F56D9"/>
</linearGradient>
<linearGradient id="paint27_linear_35_578" x1="433.146" y1="642.716" x2="431.534" y2="647.397" gradientUnits="userSpaceOnUse">
<stop stop-color="#42307D"/>
<stop offset="1" stop-color="#7F56D9"/>
</linearGradient>
<linearGradient id="paint28_linear_35_578" x1="489.325" y1="682.646" x2="490.993" y2="689.235" gradientUnits="userSpaceOnUse">
<stop stop-color="#42307D"/>
<stop offset="1" stop-color="#7F56D9"/>
</linearGradient>
<linearGradient id="paint29_linear_35_578" x1="520.892" y1="705.443" x2="520.533" y2="713.549" gradientUnits="userSpaceOnUse">
<stop stop-color="#42307D"/>
<stop offset="1" stop-color="#7F56D9"/>
</linearGradient>
<linearGradient id="paint30_linear_35_578" x1="417.868" y1="634.525" x2="416.485" y2="640.071" gradientUnits="userSpaceOnUse">
<stop stop-color="#42307D"/>
<stop offset="1" stop-color="#7F56D9"/>
</linearGradient>
<linearGradient id="paint31_linear_35_578" x1="478.436" y1="684.646" x2="481.474" y2="694.364" gradientUnits="userSpaceOnUse">
<stop stop-color="#42307D"/>
<stop offset="1" stop-color="#7F56D9"/>
</linearGradient>
<linearGradient id="paint32_linear_35_578" x1="409.444" y1="646.044" x2="409.651" y2="652.01" gradientUnits="userSpaceOnUse">
<stop stop-color="#42307D"/>
<stop offset="1" stop-color="#7F56D9"/>
</linearGradient>
<linearGradient id="paint33_linear_35_578" x1="516.606" y1="720.73" x2="516.269" y2="726.088" gradientUnits="userSpaceOnUse">
<stop stop-color="#42307D"/>
<stop offset="1" stop-color="#7F56D9"/>
</linearGradient>
<linearGradient id="paint34_linear_35_578" x1="505.868" y1="717.997" x2="505.542" y2="725.597" gradientUnits="userSpaceOnUse">
<stop stop-color="#42307D"/>
<stop offset="1" stop-color="#7F56D9"/>
</linearGradient>
<linearGradient id="paint35_linear_35_578" x1="413.65" y1="656.403" x2="415.023" y2="664.155" gradientUnits="userSpaceOnUse">
<stop stop-color="#42307D"/>
<stop offset="1" stop-color="#7F56D9"/>
</linearGradient>
<linearGradient id="paint36_linear_35_578" x1="459.451" y1="690.25" x2="461.54" y2="700.367" gradientUnits="userSpaceOnUse">
<stop stop-color="#42307D"/>
<stop offset="1" stop-color="#7F56D9"/>
</linearGradient>
<linearGradient id="paint37_linear_35_578" x1="416.148" y1="670.512" x2="417.055" y2="678.186" gradientUnits="userSpaceOnUse">
<stop stop-color="#42307D"/>
<stop offset="1" stop-color="#7F56D9"/>
</linearGradient>
<linearGradient id="paint38_linear_35_578" x1="471.606" y1="709.162" x2="470.297" y2="718.303" gradientUnits="userSpaceOnUse">
<stop stop-color="#42307D"/>
<stop offset="1" stop-color="#7F56D9"/>
</linearGradient>
<linearGradient id="paint39_linear_35_578" x1="444.106" y1="694.389" x2="447.234" y2="704.412" gradientUnits="userSpaceOnUse">
<stop stop-color="#42307D"/>
<stop offset="1" stop-color="#7F56D9"/>
</linearGradient>
<linearGradient id="paint40_linear_35_578" x1="455.482" y1="704.311" x2="454.058" y2="714.24" gradientUnits="userSpaceOnUse">
<stop stop-color="#42307D"/>
<stop offset="1" stop-color="#7F56D9"/>
</linearGradient>
<linearGradient id="paint41_linear_35_578" x1="419.553" y1="683.989" x2="425.834" y2="719.521" gradientUnits="userSpaceOnUse">
<stop stop-color="#42307D"/>
<stop offset="1" stop-color="#7F56D9"/>
</linearGradient>
<linearGradient id="paint42_linear_35_578" x1="439.953" y1="701.397" x2="438.822" y2="708.547" gradientUnits="userSpaceOnUse">
<stop stop-color="#42307D"/>
<stop offset="1" stop-color="#7F56D9"/>
</linearGradient>
<linearGradient id="paint43_linear_35_578" x1="947.999" y1="770.763" x2="1128.93" y2="771.199" gradientUnits="userSpaceOnUse">
<stop stop-color="#42307D"/>
<stop offset="1" stop-color="#7F56D9"/>
</linearGradient>
<linearGradient id="paint44_linear_35_578" x1="1048.58" y1="793.3" x2="1082.46" y2="804.624" gradientUnits="userSpaceOnUse">
<stop stop-color="#42307D"/>
<stop offset="1" stop-color="#7F56D9"/>
</linearGradient>
<linearGradient id="paint45_linear_35_578" x1="1117.68" y1="731.688" x2="1213.44" y2="740.668" gradientUnits="userSpaceOnUse">
<stop stop-color="#42307D"/>
<stop offset="1" stop-color="#7F56D9"/>
</linearGradient>
<linearGradient id="paint46_linear_35_578" x1="484.811" y1="729.999" x2="446.174" y2="851.574" gradientUnits="userSpaceOnUse">
<stop stop-color="#42307D"/>
<stop offset="1" stop-color="#7F56D9"/>
</linearGradient>
<linearGradient id="paint47_linear_35_578" x1="967.691" y1="473.494" x2="1012.43" y2="458.585" gradientUnits="userSpaceOnUse">
<stop stop-color="#42307D"/>
<stop offset="1" stop-color="#7F56D9"/>
</linearGradient>
<linearGradient id="paint48_linear_35_578" x1="877.395" y1="617.291" x2="954.094" y2="641.446" gradientUnits="userSpaceOnUse">
<stop stop-color="#42307D"/>
<stop offset="1" stop-color="#7F56D9"/>
</linearGradient>
<linearGradient id="paint49_linear_35_578" x1="533.207" y1="526.632" x2="636.533" y2="459.765" gradientUnits="userSpaceOnUse">
<stop stop-color="#42307D"/>
<stop offset="1" stop-color="#7F56D9"/>
</linearGradient>
<linearGradient id="paint50_linear_35_578" x1="988.111" y1="627" x2="1032.08" y2="721.139" gradientUnits="userSpaceOnUse">
<stop stop-color="#42307D"/>
<stop offset="1" stop-color="#7F56D9"/>
</linearGradient>
<linearGradient id="paint51_linear_35_578" x1="1012" y1="558" x2="1054.29" y2="606.617" gradientUnits="userSpaceOnUse">
<stop stop-color="#42307D"/>
<stop offset="1" stop-color="#7F56D9"/>
</linearGradient>
<linearGradient id="paint52_linear_35_578" x1="318.404" y1="736.392" x2="382.835" y2="735.319" gradientUnits="userSpaceOnUse">
<stop stop-color="#42307D"/>
<stop offset="1" stop-color="#7F56D9"/>
</linearGradient>
<linearGradient id="paint53_linear_35_578" x1="404" y1="412.567" x2="468.43" y2="411.495" gradientUnits="userSpaceOnUse">
<stop stop-color="#42307D"/>
<stop offset="1" stop-color="#7F56D9"/>
</linearGradient>
<linearGradient id="paint54_linear_35_578" x1="229.998" y1="741.999" x2="222.478" y2="846.507" gradientUnits="userSpaceOnUse">
<stop stop-color="#42307D"/>
<stop offset="1" stop-color="#7F56D9"/>
</linearGradient>
<linearGradient id="paint55_linear_35_578" x1="1115.01" y1="461.583" x2="1117.22" y2="589.693" gradientUnits="userSpaceOnUse">
<stop stop-color="#42307D"/>
<stop offset="1" stop-color="#7F56D9"/>
</linearGradient>
<linearGradient id="paint56_linear_35_578" x1="351" y1="558" x2="375.118" y2="585.53" gradientUnits="userSpaceOnUse">
<stop stop-color="#42307D"/>
<stop offset="1" stop-color="#7F56D9"/>
</linearGradient>
<linearGradient id="paint57_linear_35_578" x1="954" y1="589" x2="978.118" y2="616.53" gradientUnits="userSpaceOnUse">
<stop stop-color="#42307D"/>
<stop offset="1" stop-color="#7F56D9"/>
</linearGradient>
<linearGradient id="paint58_linear_35_578" x1="1056" y1="718" x2="1080.12" y2="745.53" gradientUnits="userSpaceOnUse">
<stop stop-color="#42307D"/>
<stop offset="1" stop-color="#7F56D9"/>
</linearGradient>
<linearGradient id="paint59_linear_35_578" x1="250.809" y1="665.935" x2="251.173" y2="639.968" gradientUnits="userSpaceOnUse">
<stop stop-color="#42307D"/>
<stop offset="1" stop-color="#7F56D9"/>
</linearGradient>
<linearGradient id="paint60_linear_35_578" x1="324.731" y1="726.163" x2="366.905" y2="587.404" gradientUnits="userSpaceOnUse">
<stop stop-color="#42307D"/>
<stop offset="1" stop-color="#7F56D9"/>
</linearGradient>
<linearGradient id="paint61_linear_35_578" x1="301.794" y1="696.723" x2="303.435" y2="673.59" gradientUnits="userSpaceOnUse">
<stop stop-color="#42307D"/>
<stop offset="1" stop-color="#7F56D9"/>
</linearGradient>
<linearGradient id="paint62_linear_35_578" x1="351.388" y1="695.386" x2="349.906" y2="677.574" gradientUnits="userSpaceOnUse">
<stop stop-color="#42307D"/>
<stop offset="1" stop-color="#7F56D9"/>
</linearGradient>
<linearGradient id="paint63_linear_35_578" x1="366.621" y1="670.315" x2="370.916" y2="659.919" gradientUnits="userSpaceOnUse">
<stop stop-color="#42307D"/>
<stop offset="1" stop-color="#7F56D9"/>
</linearGradient>
<linearGradient id="paint64_linear_35_578" x1="318.795" y1="612.461" x2="326.58" y2="585.359" gradientUnits="userSpaceOnUse">
<stop stop-color="#42307D"/>
<stop offset="1" stop-color="#7F56D9"/>
</linearGradient>
<linearGradient id="paint65_linear_35_578" x1="630.999" y1="162.058" x2="734.102" y2="237.657" gradientUnits="userSpaceOnUse">
<stop stop-color="#42307D"/>
<stop offset="1" stop-color="#7F56D9"/>
</linearGradient>
</defs>
</svg>
