<svg width="192" height="50" viewBox="0 0 192 50" fill="none" xmlns="http://www.w3.org/2000/svg">
<path d="M54.6406 31.7109C54.5469 32.6484 54.0312 33.1562 53.0938 33.2344C52.6562 33.2344 52.2734 33.0938 51.9453 32.8125C51.6328 32.5156 51.4766 32.1484 51.4766 31.7109V20.6484C51.4922 20.2109 51.6562 19.8516 51.9688 19.5703C52.2812 19.2734 52.6562 19.125 53.0938 19.125H62.9375C64.3125 19.1719 65.3516 19.4766 66.0547 20.0391C66.7578 20.5859 67.2656 21.2109 67.5781 21.9141C67.8906 22.6172 68.0469 23.3281 68.0469 24.0469C68.0469 24.7969 67.8906 25.5234 67.5781 26.2266C67.2812 26.9297 66.7734 27.5625 66.0547 28.125C65.3516 28.6719 64.4531 28.9375 63.3594 28.9219H57.4531C57.0156 28.9219 56.6484 28.7656 56.3516 28.4531C56.0391 28.1562 55.8828 27.7891 55.8828 27.3516C55.8828 26.9141 56.0312 26.5469 56.3281 26.25C56.6406 25.9375 57.0156 25.7812 57.4531 25.7812H63.5C63.7969 25.7812 64.0391 25.6875 64.2266 25.5C64.4297 25.2969 64.5781 25.0703 64.6719 24.8203C64.7656 24.5547 64.8125 24.2891 64.8125 24.0234C64.8125 23.7734 64.7656 23.5234 64.6719 23.2734C64.5781 23.0078 64.4297 22.7812 64.2266 22.5938C64.0391 22.3906 63.7969 22.2812 63.5 22.2656H55.25C54.8438 22.2812 54.6406 22.4844 54.6406 22.875V31.7109ZM75.0228 32.9531C73.6478 32.9062 72.6087 32.5859 71.9056 31.9922C71.2025 31.3828 70.6947 30.7031 70.3822 29.9531C70.0697 29.1875 69.9134 28.4141 69.9134 27.6328C69.9134 26.8203 70.0619 26.0391 70.3587 25.2891C70.6712 24.5234 71.1791 23.8438 71.8822 23.25C72.6009 22.6406 73.5072 22.3281 74.6009 22.3125H82.1947C83.2884 22.3281 84.1869 22.6406 84.89 23.25C85.6087 23.8438 86.1166 24.5234 86.4134 25.2891C86.7259 26.0391 86.8822 26.8203 86.8822 27.6328C86.8822 28.4141 86.7259 29.1875 86.4134 29.9531C86.1009 30.7031 85.5931 31.3828 84.89 31.9922C84.1869 32.5859 83.1478 32.9062 81.7728 32.9531H75.0228ZM74.5072 25.4531C74.2103 25.4531 73.9525 25.5781 73.7337 25.8281C73.515 26.0625 73.3509 26.3438 73.2416 26.6719C73.1478 26.9844 73.1009 27.2969 73.1009 27.6094C73.1009 27.9375 73.1478 28.2656 73.2416 28.5938C73.3509 28.9062 73.515 29.1875 73.7337 29.4375C73.9525 29.6719 74.2103 29.7969 74.5072 29.8125H82.2884C82.5853 29.7969 82.8431 29.6719 83.0619 29.4375C83.2806 29.1875 83.4369 28.9062 83.5306 28.5938C83.64 28.2656 83.6947 27.9375 83.6947 27.6094C83.6947 27.2969 83.64 26.9844 83.5306 26.6719C83.4369 26.3438 83.2806 26.0625 83.0619 25.8281C82.8431 25.5781 82.5853 25.4531 82.2884 25.4531H74.5072ZM89.7097 25.2656C90.0066 24.5156 90.5066 23.8438 91.2097 23.25C91.9284 22.6406 92.8347 22.3281 93.9284 22.3125H102.741C103.178 22.3125 103.546 22.4688 103.842 22.7812C104.155 23.0781 104.311 23.4453 104.311 23.8828C104.311 24.3203 104.155 24.6953 103.842 25.0078C103.546 25.3047 103.178 25.4531 102.741 25.4531H93.8347C93.5378 25.4531 93.28 25.5781 93.0612 25.8281C92.8425 26.0625 92.6706 26.3438 92.5456 26.6719C92.4362 27 92.3816 27.3125 92.3816 27.6094V31.7109C92.2878 32.6484 91.7722 33.1562 90.8347 33.2344C90.3972 33.2344 90.0144 33.0938 89.6862 32.8125C89.3737 32.5156 89.2175 32.1484 89.2175 31.7109V27.6328H89.2409C89.2409 26.8203 89.3972 26.0312 89.7097 25.2656ZM111.357 18.75C111.795 18.75 112.17 18.8984 112.482 19.1953C112.795 19.4766 112.959 19.8359 112.975 20.2734V22.3125H120.943C121.381 22.3125 121.756 22.4609 122.068 22.7578C122.365 23.0703 122.514 23.4453 122.514 23.8828C122.514 24.3203 122.357 24.6953 122.045 25.0078C121.748 25.3047 121.381 25.4531 120.943 25.4531H112.975V25.9219C112.959 26.5625 112.998 27.1562 113.092 27.7031C113.201 28.2344 113.451 28.7109 113.842 29.1328C114.232 29.5547 114.725 29.7812 115.318 29.8125H121.037C121.475 29.8281 121.834 29.9922 122.115 30.3047C122.412 30.6172 122.561 30.9922 122.561 31.4297C122.545 31.8516 122.389 32.2109 122.092 32.5078C121.811 32.7891 121.459 32.9375 121.037 32.9531H114.522C113.428 32.8906 112.522 32.5234 111.803 31.8516C111.1 31.1641 110.592 30.3281 110.279 29.3438C109.982 28.3594 109.826 27.3125 109.811 26.2031V25.4531H107.115C106.678 25.4531 106.311 25.2969 106.014 24.9844C105.701 24.6875 105.545 24.3203 105.545 23.8828C105.545 23.4453 105.693 23.0781 105.99 22.7812C106.303 22.4688 106.678 22.3125 107.115 22.3125H109.811V20.2734C109.826 19.8516 109.982 19.5 110.279 19.2188C110.576 18.9219 110.936 18.7656 111.357 18.75ZM129.818 33.2344C129.396 33.2188 129.037 33.0703 128.74 32.7891C128.443 32.4922 128.287 32.1328 128.271 31.7109V28.5469H125.576C125.138 28.5469 124.763 28.3984 124.451 28.1016C124.154 27.7891 124.005 27.4141 124.005 26.9766C124.005 26.5391 124.162 26.1719 124.474 25.875C124.771 25.5625 125.138 25.4062 125.576 25.4062H128.271C128.318 24.4844 128.474 23.5938 128.74 22.7344C129.052 21.75 129.56 20.9219 130.263 20.25C130.982 19.5625 131.888 19.1875 132.982 19.125H139.497C139.919 19.1406 140.271 19.2969 140.552 19.5938C140.849 19.875 141.005 20.2266 141.021 20.6484C141.021 21.0859 140.872 21.4609 140.576 21.7734C140.294 22.0859 139.935 22.25 139.497 22.2656H133.779C133.185 22.2969 132.693 22.5234 132.302 22.9453C131.912 23.3672 131.669 23.8438 131.576 24.375C131.497 24.7188 131.451 25.0625 131.435 25.4062H139.404C139.841 25.4062 140.208 25.5625 140.505 25.875C140.818 26.1719 140.974 26.5391 140.974 26.9766C140.974 27.4141 140.826 27.7891 140.529 28.1016C140.216 28.3984 139.841 28.5469 139.404 28.5469H131.435V31.7109C131.419 32.1484 131.255 32.5156 130.943 32.8125C130.63 33.0938 130.255 33.2344 129.818 33.2344ZM147.95 32.9531C146.575 32.9062 145.536 32.5859 144.833 31.9922C144.13 31.3828 143.622 30.7031 143.309 29.9531C142.997 29.1875 142.841 28.4141 142.841 27.6328C142.841 26.8203 142.989 26.0391 143.286 25.2891C143.598 24.5234 144.106 23.8438 144.809 23.25C145.528 22.6406 146.434 22.3281 147.528 22.3125H155.122C156.216 22.3281 157.114 22.6406 157.817 23.25C158.536 23.8438 159.044 24.5234 159.341 25.2891C159.653 26.0391 159.809 26.8203 159.809 27.6328C159.809 28.4141 159.653 29.1875 159.341 29.9531C159.028 30.7031 158.52 31.3828 157.817 31.9922C157.114 32.5859 156.075 32.9062 154.7 32.9531H147.95ZM147.434 25.4531C147.137 25.4531 146.88 25.5781 146.661 25.8281C146.442 26.0625 146.278 26.3438 146.169 26.6719C146.075 26.9844 146.028 27.2969 146.028 27.6094C146.028 27.9375 146.075 28.2656 146.169 28.5938C146.278 28.9062 146.442 29.1875 146.661 29.4375C146.88 29.6719 147.137 29.7969 147.434 29.8125H155.216C155.512 29.7969 155.77 29.6719 155.989 29.4375C156.208 29.1875 156.364 28.9062 156.458 28.5938C156.567 28.2656 156.622 27.9375 156.622 27.6094C156.622 27.2969 156.567 26.9844 156.458 26.6719C156.364 26.3438 156.208 26.0625 155.989 25.8281C155.77 25.5781 155.512 25.4531 155.216 25.4531H147.434ZM163.762 18.75C164.184 18.7656 164.543 18.9219 164.84 19.2188C165.137 19.5 165.293 19.8516 165.309 20.2734V31.7578C165.215 32.6953 164.699 33.2031 163.762 33.2812C163.324 33.2812 162.942 33.1406 162.613 32.8594C162.301 32.5625 162.145 32.1953 162.145 31.7578V20.2734C162.16 19.8359 162.324 19.4766 162.637 19.1953C162.949 18.8984 163.324 18.75 163.762 18.75ZM169.543 22.0781C169.964 22.0938 170.324 22.25 170.621 22.5469C170.918 22.8281 171.074 23.1797 171.089 23.6016V31.7109C170.996 32.6484 170.48 33.1562 169.543 33.2344C169.105 33.2344 168.722 33.0938 168.394 32.8125C168.082 32.5156 167.925 32.1484 167.925 31.7109V23.6016C167.941 23.1641 168.105 22.8047 168.418 22.5234C168.73 22.2266 169.105 22.0781 169.543 22.0781ZM167.574 19.0312C167.574 18.5938 167.761 18.2188 168.136 17.9062C168.511 17.5938 168.964 17.4375 169.496 17.4375C170.027 17.4375 170.48 17.5938 170.855 17.9062C171.23 18.2188 171.418 18.5938 171.418 19.0312C171.418 19.4844 171.23 19.8672 170.855 20.1797C170.48 20.4922 170.027 20.6484 169.496 20.6484C168.964 20.6484 168.511 20.4922 168.136 20.1797C167.761 19.8672 167.574 19.4844 167.574 19.0312ZM178.44 32.9531C177.065 32.9062 176.026 32.5859 175.323 31.9922C174.62 31.3828 174.112 30.7031 173.8 29.9531C173.487 29.1875 173.331 28.4141 173.331 27.6328C173.331 26.8203 173.479 26.0391 173.776 25.2891C174.089 24.5234 174.597 23.8438 175.3 23.25C176.018 22.6406 176.925 22.3281 178.018 22.3125H185.612C186.706 22.3281 187.604 22.6406 188.308 23.25C189.026 23.8438 189.534 24.5234 189.831 25.2891C190.143 26.0391 190.3 26.8203 190.3 27.6328C190.3 28.4141 190.143 29.1875 189.831 29.9531C189.518 30.7031 189.011 31.3828 188.308 31.9922C187.604 32.5859 186.565 32.9062 185.19 32.9531H178.44ZM177.925 25.4531C177.628 25.4531 177.37 25.5781 177.151 25.8281C176.933 26.0625 176.768 26.3438 176.659 26.6719C176.565 26.9844 176.518 27.2969 176.518 27.6094C176.518 27.9375 176.565 28.2656 176.659 28.5938C176.768 28.9062 176.933 29.1875 177.151 29.4375C177.37 29.6719 177.628 29.7969 177.925 29.8125H185.706C186.003 29.7969 186.261 29.6719 186.479 29.4375C186.698 29.1875 186.854 28.9062 186.948 28.5938C187.058 28.2656 187.112 27.9375 187.112 27.6094C187.112 27.2969 187.058 26.9844 186.948 26.6719C186.854 26.3438 186.698 26.0625 186.479 25.8281C186.261 25.5781 186.003 25.4531 185.706 25.4531H177.925Z" fill="white"/>
<circle cx="25" cy="25" r="25" fill="#FD853A"/>
<path d="M22.6406 19.6953C22.6406 20.1328 22.4844 20.5 22.1719 20.7969C21.875 21.1094 21.5078 21.2656 21.0703 21.2656H11.6953C11.3984 21.2812 11.1484 21.3516 10.9453 21.4766C10.7578 21.5859 10.6172 21.7188 10.5234 21.875C10.4297 22.0156 10.3828 22.1641 10.3828 22.3203C10.3828 22.4766 10.4297 22.6328 10.5234 22.7891C10.6172 22.9297 10.7578 23.0625 10.9453 23.1875C11.1484 23.2969 11.3984 23.3594 11.6953 23.375H18.3516C19.4453 23.4062 20.3438 23.6641 21.0469 24.1484C21.7656 24.6172 22.2734 25.1641 22.5703 25.7891C22.8828 26.3984 23.0391 27.0234 23.0391 27.6641C23.0391 28.2891 22.8828 28.9141 22.5703 29.5391C22.2578 30.1484 21.75 30.6953 21.0469 31.1797C20.3438 31.6484 19.4453 31.8828 18.3516 31.8828H18.2109C18.1172 31.8984 18.0234 31.9062 17.9297 31.9062H9.07031C8.63281 31.9062 8.25781 31.7578 7.94531 31.4609C7.64844 31.1484 7.5 30.7734 7.5 30.3359C7.5 29.8984 7.65625 29.5312 7.96875 29.2344C8.26562 28.9219 8.63281 28.7656 9.07031 28.7656H18.4922C18.7891 28.7812 19.0312 28.7266 19.2188 28.6016C19.4219 28.4766 19.5703 28.3359 19.6641 28.1797C19.7578 28.0078 19.8047 27.8359 19.8047 27.6641C19.8047 27.5547 19.7578 27.4062 19.6641 27.2188C19.5703 27.0156 19.4219 26.8516 19.2188 26.7266C19.0312 26.6016 18.7891 26.5312 18.4922 26.5156H11.8359C10.7422 26.4844 9.83594 26.2344 9.11719 25.7656C8.41406 25.2969 7.90625 24.7656 7.59375 24.1719C7.29688 23.5625 7.14844 22.9453 7.14844 22.3203C7.14844 21.7109 7.30469 21.1094 7.61719 20.5156C7.92969 19.9062 8.4375 19.3672 9.14062 18.8984C9.84375 18.4297 10.7422 18.1797 11.8359 18.1484H11.9766C12.0703 18.1328 12.1641 18.125 12.2578 18.125H21.0703C21.5078 18.125 21.875 18.2812 22.1719 18.5938C22.4844 18.8906 22.6406 19.2578 22.6406 19.6953ZM26.9212 17.75C27.3431 17.7656 27.7025 17.9219 27.9994 18.2188C28.2962 18.5 28.4525 18.8516 28.4681 19.2734V30.7578C28.3744 31.6953 27.8587 32.2031 26.9212 32.2812C26.4837 32.2812 26.1009 32.1406 25.7728 31.8594C25.4603 31.5625 25.3041 31.1953 25.3041 30.7578V19.2734C25.3197 18.8359 25.4837 18.4766 25.7962 18.1953C26.1087 17.8984 26.4837 17.75 26.9212 17.75ZM30.9291 21.875C31.9759 21.1719 33.39 20.4609 35.1712 19.7422L39.015 18.1016C39.1869 18.0234 39.3744 17.9766 39.5775 17.9609C40.015 17.9297 40.39 18.0625 40.7025 18.3594C41.015 18.6406 41.1712 19.0078 41.1712 19.4609C41.1712 19.9766 41.0619 20.3594 40.8431 20.6094C40.64 20.8438 40.3744 21.0391 40.0462 21.1953L36.765 22.4375C36.1244 22.6875 35.515 22.9375 34.9369 23.1875C34.3744 23.4219 33.8587 23.6953 33.39 24.0078C32.9212 24.2891 32.6712 24.6094 32.64 24.9688C32.6712 25.3125 32.9212 25.6328 33.39 25.9297C33.8587 26.2422 34.3744 26.5234 34.9369 26.7734C35.515 27.0078 36.1244 27.25 36.765 27.5L40.4212 28.8359C40.7494 28.9922 41.015 29.1953 41.2181 29.4453C41.4369 29.6797 41.5462 30.0547 41.5462 30.5703C41.5462 31.0234 41.39 31.3984 41.0775 31.6953C40.765 31.9766 40.39 32.1016 39.9525 32.0703C39.7494 32.0547 39.5619 32.0078 39.39 31.9297L35.1712 30.1953C33.39 29.4766 31.9681 28.7656 30.9056 28.0625C29.8587 27.3438 29.3275 26.3125 29.3119 24.9688C29.3275 23.625 29.8666 22.5938 30.9291 21.875Z" fill="white"/>
</svg>
