<svg width="416" height="508" viewBox="0 0 416 508" fill="none" xmlns="http://www.w3.org/2000/svg">
<g id="Rectangle 6" filter="url(#filter0_b_25_243)">
<path d="M0 37C0 16.5655 16.5655 0 37 0H379C399.435 0 416 16.5655 416 37V338.5C416 358.935 399.435 375.5 379 375.5H356.049C317.534 375.5 286.476 407.031 287.057 445.541L287.433 470.442C287.745 491.092 271.09 508 250.437 508H37C16.5655 508 0 491.435 0 471V37Z" fill="#686868" fill-opacity="0.2"/>
<path d="M1 37C1 17.1178 17.1177 1 37 1H379C398.882 1 415 17.1177 415 37V338.5C415 358.382 398.882 374.5 379 374.5H356.049C316.976 374.5 285.468 406.488 286.057 445.556L286.433 470.457C286.736 490.549 270.532 507 250.437 507H37C17.1177 507 1 490.882 1 471V37Z" stroke="url(#paint0_radial_25_243)" stroke-opacity="0.5" stroke-width="2"/>
</g>
<defs>
<filter id="filter0_b_25_243" x="-15" y="-15" width="446" height="538" filterUnits="userSpaceOnUse" color-interpolation-filters="sRGB">
<feFlood flood-opacity="0" result="BackgroundImageFix"/>
<feGaussianBlur in="BackgroundImageFix" stdDeviation="7.5"/>
<feComposite in2="SourceAlpha" operator="in" result="effect1_backgroundBlur_25_243"/>
<feBlend mode="normal" in="SourceGraphic" in2="effect1_backgroundBlur_25_243" result="shape"/>
</filter>
<radialGradient id="paint0_radial_25_243" cx="0" cy="0" r="1" gradientUnits="userSpaceOnUse" gradientTransform="translate(208 254) rotate(-90) scale(254 363.68)">
<stop stop-color="white" stop-opacity="0"/>
<stop offset="1" stop-color="white"/>
</radialGradient>
</defs>
</svg>
